# MagicaVoxel @ Ephtracy

# group
o 

# material
mtllib car2.mtl
usemtl palette

# normals
vn -1 0 0
vn 1 0 0
vn 0 0 1
vn 0 0 -1
vn 0 -1 0
vn 0 1 0

# texcoords
vt 0.306641 0.5
vt 0.587891 0.5
vt 0.751953 0.5
vt 0.958984 0.5
vt 0.982422 0.5
vt 0.994141 0.5

# verts
v -0.6 0.1 0.4
v -0.6 0.1 0.3
v -0.6 0.1 -0.3
v -0.6 0.1 -0.4
v -0.6 0.2 0.4
v -0.6 0.2 0.3
v -0.6 0.2 -0.3
v -0.6 0.2 -0.4
v -0.6 0.3 0.4
v -0.6 0.3 0.3
v -0.6 0.3 -0.3
v -0.6 0.3 -0.4
v -0.6 0.5 0.4
v -0.6 0.5 0.3
v -0.6 0.5 0.2
v -0.6 0.5 -0.2
v -0.6 0.5 -0.3
v -0.6 0.5 -0.4
v -0.6 0.6 0.2
v -0.6 0.6 -0.2
v -0.5 0 0.4
v -0.5 0 0.3
v -0.5 0 -0.3
v -0.5 0 -0.4
v -0.5 0.1 0.4
v -0.5 0.1 0.3
v -0.5 0.1 -0.3
v -0.5 0.1 -0.4
v -0.5 0.2 0.3
v -0.5 0.2 -0.3
v -0.5 0.3 0.3
v -0.5 0.3 -0.3
v -0.4 0.5 0.4
v -0.4 0.5 0.3
v -0.4 0.5 -0.3
v -0.4 0.5 -0.4
v -0.4 0.8 0.4
v -0.4 0.8 -0.4
v 0.2 0 0.4
v 0.2 0 0.3
v 0.2 0 -0.3
v 0.2 0 -0.4
v 0.2 0.1 0.4
v 0.2 0.1 0.3
v 0.2 0.1 -0.3
v 0.2 0.1 -0.4
v 0.2 0.4 0.5
v 0.2 0.4 0.4
v 0.2 0.4 -0.4
v 0.2 0.4 -0.5
v 0.2 0.5 0.4
v 0.2 0.5 -0.4
v 0.2 0.6 0.5
v 0.2 0.6 0.4
v 0.2 0.6 -0.4
v 0.2 0.6 -0.5
v -0.5 0.5 0.2
v -0.5 0.5 -0.2
v -0.5 0.6 0.2
v -0.5 0.6 -0.2
v -0.2 0 0.4
v -0.2 0 0.3
v -0.2 0 -0.3
v -0.2 0 -0.4
v -0.2 0.1 0.4
v -0.2 0.1 0.3
v -0.2 0.1 -0.3
v -0.2 0.1 -0.4
v 0.3 0.4 0.5
v 0.3 0.4 0.4
v 0.3 0.4 -0.4
v 0.3 0.4 -0.5
v 0.3 0.5 0.4
v 0.3 0.5 0.3
v 0.3 0.5 -0.3
v 0.3 0.5 -0.4
v 0.3 0.6 0.5
v 0.3 0.6 0.4
v 0.3 0.6 -0.4
v 0.3 0.6 -0.5
v 0.3 0.7 0.3
v 0.3 0.7 -0.3
v 0.3 0.8 0.4
v 0.3 0.8 -0.4
v 0.5 0 0.4
v 0.5 0 0.3
v 0.5 0 -0.3
v 0.5 0 -0.4
v 0.5 0.1 0.4
v 0.5 0.1 0.3
v 0.5 0.1 -0.3
v 0.5 0.1 -0.4
v 0.6 0.1 0.4
v 0.6 0.1 0.3
v 0.6 0.1 -0.3
v 0.6 0.1 -0.4
v 0.6 0.2 0.4
v 0.6 0.2 0.3
v 0.6 0.2 -0.3
v 0.6 0.2 -0.4
v 0.6 0.3 0.4
v 0.6 0.3 0.3
v 0.6 0.3 -0.3
v 0.6 0.3 -0.4
v 0.6 0.4 0.4
v 0.6 0.4 0.3
v 0.6 0.4 -0.3
v 0.6 0.4 -0.4
v 0.6 0.5 0.4
v 0.6 0.5 0.3
v 0.6 0.5 -0.3
v 0.6 0.5 -0.4
v 0.2 0.4 0.5
v 0.2 0.6 0.5
v 0.3 0.4 0.5
v 0.3 0.6 0.5
v -0.6 0.1 0.4
v -0.6 0.2 0.4
v -0.6 0.3 0.4
v -0.6 0.5 0.4
v -0.5 0 0.4
v -0.5 0.1 0.4
v -0.5 0.2 0.4
v -0.5 0.3 0.4
v -0.4 0.1 0.4
v -0.4 0.2 0.4
v -0.4 0.5 0.4
v -0.4 0.8 0.4
v -0.3 0.1 0.4
v -0.3 0.2 0.4
v -0.3 0.5 0.4
v -0.3 0.7 0.4
v -0.2 0 0.4
v -0.2 0.1 0.4
v -0.2 0.2 0.4
v -0.2 0.3 0.4
v 0.2 0 0.4
v 0.2 0.1 0.4
v 0.2 0.2 0.4
v 0.2 0.3 0.4
v 0.2 0.4 0.4
v 0.2 0.5 0.4
v 0.2 0.6 0.4
v 0.2 0.7 0.4
v 0.3 0.1 0.4
v 0.3 0.2 0.4
v 0.3 0.4 0.4
v 0.3 0.5 0.4
v 0.3 0.6 0.4
v 0.3 0.8 0.4
v 0.4 0.1 0.4
v 0.4 0.2 0.4
v 0.5 0 0.4
v 0.5 0.1 0.4
v 0.5 0.2 0.4
v 0.5 0.3 0.4
v 0.5 0.4 0.4
v 0.6 0.1 0.4
v 0.6 0.2 0.4
v 0.6 0.3 0.4
v 0.6 0.4 0.4
v 0.6 0.5 0.4
v -0.6 0.5 0.2
v -0.6 0.6 0.2
v -0.5 0.5 0.2
v -0.5 0.6 0.2
v -0.6 0.1 -0.3
v -0.6 0.2 -0.3
v -0.6 0.3 -0.3
v -0.5 0 -0.3
v -0.5 0.1 -0.3
v -0.5 0.2 -0.3
v -0.5 0.3 -0.3
v -0.4 0.1 -0.3
v -0.4 0.2 -0.3
v -0.3 0.1 -0.3
v -0.3 0.2 -0.3
v -0.2 0 -0.3
v -0.2 0.1 -0.3
v -0.2 0.2 -0.3
v 0.2 0 -0.3
v 0.2 0.1 -0.3
v 0.2 0.2 -0.3
v 0.3 0.1 -0.3
v 0.3 0.2 -0.3
v 0.4 0.1 -0.3
v 0.4 0.2 -0.3
v 0.5 0 -0.3
v 0.5 0.1 -0.3
v 0.5 0.2 -0.3
v 0.6 0.1 -0.3
v 0.6 0.2 -0.3
v -0.6 0.1 0.3
v -0.6 0.2 0.3
v -0.6 0.3 0.3
v -0.5 0 0.3
v -0.5 0.1 0.3
v -0.5 0.2 0.3
v -0.5 0.3 0.3
v -0.4 0.1 0.3
v -0.4 0.2 0.3
v -0.3 0.1 0.3
v -0.3 0.2 0.3
v -0.2 0 0.3
v -0.2 0.1 0.3
v -0.2 0.2 0.3
v 0.2 0 0.3
v 0.2 0.1 0.3
v 0.2 0.2 0.3
v 0.3 0.1 0.3
v 0.3 0.2 0.3
v 0.4 0.1 0.3
v 0.4 0.2 0.3
v 0.5 0 0.3
v 0.5 0.1 0.3
v 0.5 0.2 0.3
v 0.6 0.1 0.3
v 0.6 0.2 0.3
v -0.6 0.5 -0.2
v -0.6 0.6 -0.2
v -0.5 0.5 -0.2
v -0.5 0.6 -0.2
v -0.6 0.1 -0.4
v -0.6 0.2 -0.4
v -0.6 0.3 -0.4
v -0.6 0.5 -0.4
v -0.5 0 -0.4
v -0.5 0.1 -0.4
v -0.5 0.2 -0.4
v -0.5 0.3 -0.4
v -0.4 0.1 -0.4
v -0.4 0.2 -0.4
v -0.4 0.5 -0.4
v -0.4 0.8 -0.4
v -0.3 0.1 -0.4
v -0.3 0.2 -0.4
v -0.3 0.5 -0.4
v -0.3 0.7 -0.4
v -0.2 0 -0.4
v -0.2 0.1 -0.4
v -0.2 0.2 -0.4
v -0.2 0.3 -0.4
v 0.2 0 -0.4
v 0.2 0.1 -0.4
v 0.2 0.2 -0.4
v 0.2 0.3 -0.4
v 0.2 0.4 -0.4
v 0.2 0.5 -0.4
v 0.2 0.6 -0.4
v 0.2 0.7 -0.4
v 0.3 0.1 -0.4
v 0.3 0.2 -0.4
v 0.3 0.4 -0.4
v 0.3 0.5 -0.4
v 0.3 0.6 -0.4
v 0.3 0.8 -0.4
v 0.4 0.1 -0.4
v 0.4 0.2 -0.4
v 0.5 0 -0.4
v 0.5 0.1 -0.4
v 0.5 0.2 -0.4
v 0.5 0.3 -0.4
v 0.5 0.4 -0.4
v 0.6 0.1 -0.4
v 0.6 0.2 -0.4
v 0.6 0.3 -0.4
v 0.6 0.4 -0.4
v 0.6 0.5 -0.4
v 0.2 0.4 -0.5
v 0.2 0.6 -0.5
v 0.3 0.4 -0.5
v 0.3 0.6 -0.5
v -0.5 0 0.4
v -0.2 0 0.4
v 0.2 0 0.4
v 0.5 0 0.4
v -0.5 0 0.3
v -0.2 0 0.3
v 0.2 0 0.3
v 0.5 0 0.3
v -0.5 0 -0.3
v -0.2 0 -0.3
v 0.2 0 -0.3
v 0.5 0 -0.3
v -0.5 0 -0.4
v -0.2 0 -0.4
v 0.2 0 -0.4
v 0.5 0 -0.4
v -0.6 0.1 0.4
v -0.5 0.1 0.4
v -0.2 0.1 0.4
v 0.2 0.1 0.4
v 0.5 0.1 0.4
v 0.6 0.1 0.4
v -0.6 0.1 0.3
v -0.5 0.1 0.3
v -0.2 0.1 0.3
v 0.2 0.1 0.3
v 0.5 0.1 0.3
v 0.6 0.1 0.3
v -0.6 0.1 -0.3
v -0.5 0.1 -0.3
v -0.2 0.1 -0.3
v 0.2 0.1 -0.3
v 0.5 0.1 -0.3
v 0.6 0.1 -0.3
v -0.6 0.1 -0.4
v -0.5 0.1 -0.4
v -0.2 0.1 -0.4
v 0.2 0.1 -0.4
v 0.5 0.1 -0.4
v 0.6 0.1 -0.4
v -0.5 0.2 0.3
v -0.4 0.2 0.3
v -0.3 0.2 0.3
v -0.2 0.2 0.3
v 0.2 0.2 0.3
v 0.3 0.2 0.3
v 0.4 0.2 0.3
v 0.5 0.2 0.3
v 0.6 0.2 0.3
v -0.5 0.2 -0.3
v -0.4 0.2 -0.3
v -0.3 0.2 -0.3
v -0.2 0.2 -0.3
v 0.2 0.2 -0.3
v 0.3 0.2 -0.3
v 0.4 0.2 -0.3
v 0.5 0.2 -0.3
v 0.6 0.2 -0.3
v -0.6 0.3 0.3
v -0.5 0.3 0.3
v -0.6 0.3 -0.3
v -0.5 0.3 -0.3
v 0.2 0.4 0.5
v 0.3 0.4 0.5
v 0.2 0.4 0.4
v 0.3 0.4 0.4
v 0.2 0.4 -0.4
v 0.3 0.4 -0.4
v 0.2 0.4 -0.5
v 0.3 0.4 -0.5
v -0.6 0.5 0.4
v -0.4 0.5 0.4
v 0.3 0.5 0.4
v 0.6 0.5 0.4
v -0.6 0.5 0.3
v -0.4 0.5 0.3
v 0.3 0.5 0.3
v 0.6 0.5 0.3
v -0.6 0.5 0.2
v -0.5 0.5 0.2
v -0.6 0.5 -0.2
v -0.5 0.5 -0.2
v -0.6 0.5 -0.3
v -0.4 0.5 -0.3
v 0.3 0.5 -0.3
v 0.6 0.5 -0.3
v -0.6 0.5 -0.4
v -0.4 0.5 -0.4
v 0.3 0.5 -0.4
v 0.6 0.5 -0.4
v 0.2 0.6 0.5
v 0.3 0.6 0.5
v 0.2 0.6 0.4
v 0.3 0.6 0.4
v -0.6 0.6 0.2
v -0.5 0.6 0.2
v -0.6 0.6 -0.2
v -0.5 0.6 -0.2
v 0.2 0.6 -0.4
v 0.3 0.6 -0.4
v 0.2 0.6 -0.5
v 0.3 0.6 -0.5
v -0.4 0.8 0.4
v 0.3 0.8 0.4
v -0.4 0.8 -0.4
v 0.3 0.8 -0.4

# faces
f 5/5/1 2/5/1 1/5/1
f 6/5/1 2/5/1 5/5/1
f 7/5/1 4/5/1 3/5/1
f 8/5/1 4/5/1 7/5/1
f 9/1/1 6/1/1 5/1/1
f 10/1/1 6/1/1 9/1/1
f 11/1/1 8/1/1 7/1/1
f 12/1/1 8/1/1 11/1/1
f 13/2/1 10/2/1 9/2/1
f 14/3/1 11/3/1 10/3/1
f 14/2/1 10/2/1 13/2/1
f 15/3/1 11/3/1 14/3/1
f 16/3/1 11/3/1 15/3/1
f 17/2/1 12/2/1 11/2/1
f 17/3/1 11/3/1 16/3/1
f 18/2/1 12/2/1 17/2/1
f 19/2/1 16/2/1 15/2/1
f 20/2/1 16/2/1 19/2/1
f 25/6/1 22/6/1 21/6/1
f 26/6/1 22/6/1 25/6/1
f 27/6/1 24/6/1 23/6/1
f 28/6/1 24/6/1 27/6/1
f 31/3/1 30/3/1 29/3/1
f 32/3/1 30/3/1 31/3/1
f 37/4/1 34/4/1 33/4/1
f 37/4/1 36/4/1 35/4/1
f 37/4/1 35/4/1 34/4/1
f 38/4/1 36/4/1 37/4/1
f 43/6/1 40/6/1 39/6/1
f 44/6/1 40/6/1 43/6/1
f 45/6/1 42/6/1 41/6/1
f 46/6/1 42/6/1 45/6/1
f 51/5/1 48/5/1 47/5/1
f 52/5/1 50/5/1 49/5/1
f 53/5/1 51/5/1 47/5/1
f 54/5/1 51/5/1 53/5/1
f 55/5/1 50/5/1 52/5/1
f 56/5/1 50/5/1 55/5/1
f 57/2/2 58/2/2 59/2/2
f 59/2/2 58/2/2 60/2/2
f 61/6/2 62/6/2 65/6/2
f 65/6/2 62/6/2 66/6/2
f 63/6/2 64/6/2 67/6/2
f 67/6/2 64/6/2 68/6/2
f 69/5/2 70/5/2 73/5/2
f 71/5/2 72/5/2 76/5/2
f 69/5/2 73/5/2 77/5/2
f 73/4/2 74/4/2 78/4/2
f 77/5/2 73/5/2 78/5/2
f 75/4/2 76/4/2 79/4/2
f 76/5/2 72/5/2 79/5/2
f 79/5/2 72/5/2 80/5/2
f 74/6/2 75/6/2 81/6/2
f 78/4/2 74/4/2 81/4/2
f 75/4/2 79/4/2 82/4/2
f 81/6/2 75/6/2 82/6/2
f 78/4/2 81/4/2 83/4/2
f 81/4/2 82/4/2 83/4/2
f 82/4/2 79/4/2 84/4/2
f 83/4/2 82/4/2 84/4/2
f 85/6/2 86/6/2 89/6/2
f 89/6/2 86/6/2 90/6/2
f 87/6/2 88/6/2 91/6/2
f 91/6/2 88/6/2 92/6/2
f 93/5/2 94/5/2 97/5/2
f 97/5/2 94/5/2 98/5/2
f 95/5/2 96/5/2 99/5/2
f 99/5/2 96/5/2 100/5/2
f 97/1/2 98/1/2 101/1/2
f 98/3/2 99/3/2 102/3/2
f 101/1/2 98/1/2 102/1/2
f 99/1/2 100/1/2 103/1/2
f 102/3/2 99/3/2 103/3/2
f 103/1/2 100/1/2 104/1/2
f 101/4/2 102/4/2 105/4/2
f 102/3/2 103/3/2 106/3/2
f 105/4/2 102/4/2 106/4/2
f 103/4/2 104/4/2 107/4/2
f 106/3/2 103/3/2 107/3/2
f 107/4/2 104/4/2 108/4/2
f 105/2/2 106/2/2 109/2/2
f 106/3/2 107/3/2 110/3/2
f 109/2/2 106/2/2 110/2/2
f 107/2/2 108/2/2 111/2/2
f 110/3/2 107/3/2 111/3/2
f 111/2/2 108/2/2 112/2/2
f 115/5/3 114/5/3 113/5/3
f 116/5/3 114/5/3 115/5/3
f 122/5/3 118/5/3 117/5/3
f 123/1/3 119/1/3 118/1/3
f 123/5/3 118/5/3 122/5/3
f 124/2/3 120/2/3 119/2/3
f 124/1/3 119/1/3 123/1/3
f 125/6/3 123/6/3 122/6/3
f 125/6/3 122/6/3 121/6/3
f 125/6/3 124/6/3 123/6/3
f 126/6/3 124/6/3 125/6/3
f 127/2/3 120/2/3 124/2/3
f 129/6/3 125/6/3 121/6/3
f 129/4/3 126/4/3 125/4/3
f 130/6/3 124/6/3 126/6/3
f 130/4/3 126/4/3 129/4/3
f 131/4/3 128/4/3 127/4/3
f 131/2/3 127/2/3 124/2/3
f 132/4/3 128/4/3 131/4/3
f 133/6/3 129/6/3 121/6/3
f 133/6/3 130/6/3 129/6/3
f 134/6/3 130/6/3 133/6/3
f 135/6/3 124/6/3 130/6/3
f 135/6/3 130/6/3 134/6/3
f 136/2/3 131/2/3 124/2/3
f 136/6/3 124/6/3 135/6/3
f 138/5/3 135/5/3 134/5/3
f 139/1/3 136/1/3 135/1/3
f 139/5/3 135/5/3 138/5/3
f 140/2/3 131/2/3 136/2/3
f 140/1/3 136/1/3 139/1/3
f 141/2/3 131/2/3 140/2/3
f 142/6/3 132/6/3 131/6/3
f 142/2/3 131/2/3 141/2/3
f 143/6/3 132/6/3 142/6/3
f 144/4/3 128/4/3 132/4/3
f 144/6/3 132/6/3 143/6/3
f 145/6/3 139/6/3 138/6/3
f 145/6/3 138/6/3 137/6/3
f 145/6/3 140/6/3 139/6/3
f 146/6/3 140/6/3 145/6/3
f 147/2/3 141/2/3 140/2/3
f 149/4/3 144/4/3 143/4/3
f 150/4/3 128/4/3 144/4/3
f 150/4/3 144/4/3 149/4/3
f 151/6/3 145/6/3 137/6/3
f 151/4/3 146/4/3 145/4/3
f 152/6/3 140/6/3 146/6/3
f 152/4/3 146/4/3 151/4/3
f 153/6/3 151/6/3 137/6/3
f 153/6/3 152/6/3 151/6/3
f 154/6/3 152/6/3 153/6/3
f 155/6/3 140/6/3 152/6/3
f 155/6/3 152/6/3 154/6/3
f 156/2/3 148/2/3 147/2/3
f 156/6/3 140/6/3 155/6/3
f 156/2/3 147/2/3 140/2/3
f 157/2/3 148/2/3 156/2/3
f 158/5/3 155/5/3 154/5/3
f 159/1/3 156/1/3 155/1/3
f 159/5/3 155/5/3 158/5/3
f 160/4/3 157/4/3 156/4/3
f 160/1/3 156/1/3 159/1/3
f 161/2/3 148/2/3 157/2/3
f 161/4/3 157/4/3 160/4/3
f 162/2/3 148/2/3 161/2/3
f 165/2/3 164/2/3 163/2/3
f 166/2/3 164/2/3 165/2/3
f 171/5/3 168/5/3 167/5/3
f 172/1/3 169/1/3 168/1/3
f 172/5/3 168/5/3 171/5/3
f 173/1/3 169/1/3 172/1/3
f 174/6/3 171/6/3 170/6/3
f 174/6/3 172/6/3 171/6/3
f 175/6/3 172/6/3 174/6/3
f 176/6/3 174/6/3 170/6/3
f 176/4/3 175/4/3 174/4/3
f 177/4/3 175/4/3 176/4/3
f 178/6/3 176/6/3 170/6/3
f 178/6/3 177/6/3 176/6/3
f 179/6/3 177/6/3 178/6/3
f 180/6/3 177/6/3 179/6/3
f 182/5/3 180/5/3 179/5/3
f 183/5/3 180/5/3 182/5/3
f 184/6/3 182/6/3 181/6/3
f 184/6/3 183/6/3 182/6/3
f 185/6/3 183/6/3 184/6/3
f 186/6/3 184/6/3 181/6/3
f 186/4/3 185/4/3 184/4/3
f 187/4/3 185/4/3 186/4/3
f 188/6/3 186/6/3 181/6/3
f 188/6/3 187/6/3 186/6/3
f 189/6/3 187/6/3 188/6/3
f 190/6/3 187/6/3 189/6/3
f 191/5/3 190/5/3 189/5/3
f 192/5/3 190/5/3 191/5/3
f 193/5/4 194/5/4 197/5/4
f 194/1/4 195/1/4 198/1/4
f 197/5/4 194/5/4 198/5/4
f 198/1/4 195/1/4 199/1/4
f 196/6/4 197/6/4 200/6/4
f 197/6/4 198/6/4 200/6/4
f 200/6/4 198/6/4 201/6/4
f 196/6/4 200/6/4 202/6/4
f 200/4/4 201/4/4 202/4/4
f 202/4/4 201/4/4 203/4/4
f 196/6/4 202/6/4 204/6/4
f 202/6/4 203/6/4 204/6/4
f 204/6/4 203/6/4 205/6/4
f 205/6/4 203/6/4 206/6/4
f 205/5/4 206/5/4 208/5/4
f 208/5/4 206/5/4 209/5/4
f 207/6/4 208/6/4 210/6/4
f 208/6/4 209/6/4 210/6/4
f 210/6/4 209/6/4 211/6/4
f 207/6/4 210/6/4 212/6/4
f 210/4/4 211/4/4 212/4/4
f 212/4/4 211/4/4 213/4/4
f 207/6/4 212/6/4 214/6/4
f 212/6/4 213/6/4 214/6/4
f 214/6/4 213/6/4 215/6/4
f 215/6/4 213/6/4 216/6/4
f 215/5/4 216/5/4 217/5/4
f 217/5/4 216/5/4 218/5/4
f 219/2/4 220/2/4 221/2/4
f 221/2/4 220/2/4 222/2/4
f 223/5/4 224/5/4 228/5/4
f 224/1/4 225/1/4 229/1/4
f 228/5/4 224/5/4 229/5/4
f 225/2/4 226/2/4 230/2/4
f 229/1/4 225/1/4 230/1/4
f 228/6/4 229/6/4 231/6/4
f 227/6/4 228/6/4 231/6/4
f 229/6/4 230/6/4 231/6/4
f 231/6/4 230/6/4 232/6/4
f 230/2/4 226/2/4 233/2/4
f 227/6/4 231/6/4 235/6/4
f 231/4/4 232/4/4 235/4/4
f 232/6/4 230/6/4 236/6/4
f 235/4/4 232/4/4 236/4/4
f 233/4/4 234/4/4 237/4/4
f 230/2/4 233/2/4 237/2/4
f 237/4/4 234/4/4 238/4/4
f 227/6/4 235/6/4 239/6/4
f 235/6/4 236/6/4 239/6/4
f 239/6/4 236/6/4 240/6/4
f 236/6/4 230/6/4 241/6/4
f 240/6/4 236/6/4 241/6/4
f 230/2/4 237/2/4 242/2/4
f 241/6/4 230/6/4 242/6/4
f 240/5/4 241/5/4 244/5/4
f 241/1/4 242/1/4 245/1/4
f 244/5/4 241/5/4 245/5/4
f 242/2/4 237/2/4 246/2/4
f 245/1/4 242/1/4 246/1/4
f 246/2/4 237/2/4 247/2/4
f 237/6/4 238/6/4 248/6/4
f 247/2/4 237/2/4 248/2/4
f 248/6/4 238/6/4 249/6/4
f 238/4/4 234/4/4 250/4/4
f 249/6/4 238/6/4 250/6/4
f 244/6/4 245/6/4 251/6/4
f 243/6/4 244/6/4 251/6/4
f 245/6/4 246/6/4 251/6/4
f 251/6/4 246/6/4 252/6/4
f 246/2/4 247/2/4 253/2/4
f 249/4/4 250/4/4 255/4/4
f 250/4/4 234/4/4 256/4/4
f 255/4/4 250/4/4 256/4/4
f 243/6/4 251/6/4 257/6/4
f 251/4/4 252/4/4 257/4/4
f 252/6/4 246/6/4 258/6/4
f 257/4/4 252/4/4 258/4/4
f 243/6/4 257/6/4 259/6/4
f 257/6/4 258/6/4 259/6/4
f 259/6/4 258/6/4 260/6/4
f 258/6/4 246/6/4 261/6/4
f 260/6/4 258/6/4 261/6/4
f 253/2/4 254/2/4 262/2/4
f 261/6/4 246/6/4 262/6/4
f 246/2/4 253/2/4 262/2/4
f 262/2/4 254/2/4 263/2/4
f 260/5/4 261/5/4 264/5/4
f 261/1/4 262/1/4 265/1/4
f 264/5/4 261/5/4 265/5/4
f 262/4/4 263/4/4 266/4/4
f 265/1/4 262/1/4 266/1/4
f 263/2/4 254/2/4 267/2/4
f 266/4/4 263/4/4 267/4/4
f 267/2/4 254/2/4 268/2/4
f 269/5/4 270/5/4 271/5/4
f 271/5/4 270/5/4 272/5/4
f 277/6/5 274/6/5 273/6/5
f 278/6/5 274/6/5 277/6/5
f 279/6/5 276/6/5 275/6/5
f 280/6/5 276/6/5 279/6/5
f 285/6/5 282/6/5 281/6/5
f 286/6/5 282/6/5 285/6/5
f 287/6/5 284/6/5 283/6/5
f 288/6/5 284/6/5 287/6/5
f 295/5/5 290/5/5 289/5/5
f 296/5/5 290/5/5 295/5/5
f 297/5/5 292/5/5 291/5/5
f 298/5/5 292/5/5 297/5/5
f 299/5/5 294/5/5 293/5/5
f 300/5/5 294/5/5 299/5/5
f 307/5/5 302/5/5 301/5/5
f 308/5/5 302/5/5 307/5/5
f 309/5/5 304/5/5 303/5/5
f 310/5/5 304/5/5 309/5/5
f 311/5/5 306/5/5 305/5/5
f 312/5/5 306/5/5 311/5/5
f 322/3/5 314/3/5 313/3/5
f 322/3/5 321/3/5 320/3/5
f 322/3/5 320/3/5 319/3/5
f 322/3/5 319/3/5 318/3/5
f 322/3/5 318/3/5 317/3/5
f 322/3/5 317/3/5 316/3/5
f 322/3/5 316/3/5 315/3/5
f 322/3/5 315/3/5 314/3/5
f 323/3/5 321/3/5 322/3/5
f 324/3/5 321/3/5 323/3/5
f 325/3/5 321/3/5 324/3/5
f 326/3/5 321/3/5 325/3/5
f 327/3/5 321/3/5 326/3/5
f 328/3/5 321/3/5 327/3/5
f 329/3/5 321/3/5 328/3/5
f 330/3/5 321/3/5 329/3/5
f 333/3/5 332/3/5 331/3/5
f 334/3/5 332/3/5 333/3/5
f 337/5/5 336/5/5 335/5/5
f 338/5/5 336/5/5 337/5/5
f 341/5/5 340/5/5 339/5/5
f 342/5/5 340/5/5 341/5/5
f 343/2/6 344/2/6 347/2/6
f 347/2/6 344/2/6 348/2/6
f 345/2/6 346/2/6 349/2/6
f 349/2/6 346/2/6 350/2/6
f 347/3/6 348/3/6 351/3/6
f 351/3/6 348/3/6 352/3/6
f 352/3/6 348/3/6 354/3/6
f 353/3/6 354/3/6 355/3/6
f 354/3/6 348/3/6 356/3/6
f 355/3/6 354/3/6 356/3/6
f 349/3/6 350/3/6 357/3/6
f 357/3/6 350/3/6 358/3/6
f 355/2/6 356/2/6 359/2/6
f 359/2/6 356/2/6 360/2/6
f 357/2/6 358/2/6 361/2/6
f 361/2/6 358/2/6 362/2/6
f 363/5/6 364/5/6 365/5/6
f 365/5/6 364/5/6 366/5/6
f 367/2/6 368/2/6 369/2/6
f 369/2/6 368/2/6 370/2/6
f 371/5/6 372/5/6 373/5/6
f 373/5/6 372/5/6 374/5/6
f 375/4/6 376/4/6 377/4/6
f 377/4/6 376/4/6 378/4/6
