# MagicaVoxel @ Ephtracy

# group
o 

# material
mtllib car3.mtl
usemtl palette

# normals
vn -1 0 0
vn 1 0 0
vn 0 0 1
vn 0 0 -1
vn 0 -1 0
vn 0 1 0

# texcoords
vt 0.876953 0.5
vt 0.884766 0.5
vt 0.896484 0.5
vt 0.966797 0.5
vt 0.974609 0.5

# verts
v -0.7 0.2 0.4
v -0.7 0.2 0.1
v -0.7 0.2 -0.1
v -0.7 0.2 -0.4
v -0.7 0.3 0.4
v -0.7 0.3 0.1
v -0.7 0.3 -0.1
v -0.7 0.3 -0.4
v -0.7 0.5 0.4
v -0.7 0.5 -0.4
v -0.6 0.5 0.3
v -0.6 0.5 0.2
v -0.6 0.5 -0.2
v -0.6 0.5 -0.3
v -0.6 0.7 0.2
v -0.6 0.7 -0.2
v -0.6 0.8 0.3
v -0.6 0.8 -0.3
v -0.5 0 0.4
v -0.5 0 0.3
v -0.5 0 -0.3
v -0.5 0 -0.4
v -0.5 0.2 0.4
v -0.5 0.2 0.3
v -0.5 0.2 -0.3
v -0.5 0.2 -0.4
v 5.96046e-008 0.4 0.5
v 5.96046e-008 0.4 0.4
v 5.96046e-008 0.4 -0.4
v 5.96046e-008 0.4 -0.5
v 5.96046e-008 0.5 0.5
v 5.96046e-008 0.5 0.4
v 5.96046e-008 0.5 -0.4
v 5.96046e-008 0.5 -0.5
v 0.5 0 0.4
v 0.5 0 0.3
v 0.5 0 -0.3
v 0.5 0 -0.4
v 0.5 0.2 0.4
v 0.5 0.2 0.3
v 0.5 0.2 -0.3
v 0.5 0.2 -0.4
v -0.2 0 0.4
v -0.2 0 0.3
v -0.2 0 -0.3
v -0.2 0 -0.4
v -0.2 0.2 0.4
v -0.2 0.2 0.3
v -0.2 0.2 -0.3
v -0.2 0.2 -0.4
v 0.2 0.4 0.5
v 0.2 0.4 0.4
v 0.2 0.4 -0.4
v 0.2 0.4 -0.5
v 0.2 0.5 0.5
v 0.2 0.5 0.4
v 0.2 0.5 -0.4
v 0.2 0.5 -0.5
v 0.4 0.5 0.3
v 0.4 0.5 0.2
v 0.4 0.5 -0.2
v 0.4 0.5 -0.3
v 0.4 0.7 0.2
v 0.4 0.7 -0.2
v 0.4 0.8 0.3
v 0.4 0.8 -0.3
v 0.8 0 0.4
v 0.8 0 0.3
v 0.8 0 -0.3
v 0.8 0 -0.4
v 0.8 0.2 0.4
v 0.8 0.2 0.3
v 0.8 0.2 -0.3
v 0.8 0.2 -0.4
v 1 0.2 0.4
v 1 0.2 -0.4
v 1 0.3 0.4
v 1 0.3 0.3
v 1 0.3 0.2
v 1 0.3 -0.2
v 1 0.3 -0.3
v 1 0.3 -0.4
v 1 0.4 0.3
v 1 0.4 0.2
v 1 0.4 -0.2
v 1 0.4 -0.3
v 1 0.5 0.4
v 1 0.5 0.2
v 1 0.5 -0.2
v 1 0.5 -0.4
v 5.96046e-008 0.4 0.5
v 5.96046e-008 0.5 0.5
v 0.2 0.4 0.5
v 0.2 0.5 0.5
v -0.7 0.2 0.4
v -0.7 0.3 0.4
v -0.7 0.5 0.4
v -0.5 0 0.4
v -0.5 0.2 0.4
v -0.5 0.3 0.4
v -0.4 0.1 0.4
v -0.4 0.2 0.4
v -0.3 0.1 0.4
v -0.3 0.2 0.4
v -0.2 0 0.4
v -0.2 0.2 0.4
v -0.2 0.3 0.4
v 5.96046e-008 0.4 0.4
v 5.96046e-008 0.5 0.4
v 0.2 0.4 0.4
v 0.2 0.5 0.4
v 0.5 0 0.4
v 0.5 0.2 0.4
v 0.5 0.3 0.4
v 0.6 0.1 0.4
v 0.6 0.2 0.4
v 0.7 0.1 0.4
v 0.7 0.2 0.4
v 0.8 0 0.4
v 0.8 0.2 0.4
v 0.8 0.3 0.4
v 1 0.2 0.4
v 1 0.3 0.4
v 1 0.5 0.4
v -0.6 0.5 0.3
v -0.6 0.8 0.3
v -0.5 0.5 0.3
v -0.5 0.7 0.3
v -0.2 0.5 0.3
v -0.2 0.7 0.3
v -0.1 0.5 0.3
v -0.1 0.7 0.3
v 0.3 0.5 0.3
v 0.3 0.7 0.3
v 0.4 0.5 0.3
v 0.4 0.8 0.3
v -0.5 0 -0.3
v -0.5 0.2 -0.3
v -0.4 0.1 -0.3
v -0.4 0.2 -0.3
v -0.3 0.1 -0.3
v -0.3 0.2 -0.3
v -0.2 0 -0.3
v -0.2 0.2 -0.3
v 0.5 0 -0.3
v 0.5 0.2 -0.3
v 0.6 0.1 -0.3
v 0.6 0.2 -0.3
v 0.7 0.1 -0.3
v 0.7 0.2 -0.3
v 0.8 0 -0.3
v 0.8 0.2 -0.3
v -0.5 0 0.3
v -0.5 0.2 0.3
v -0.4 0.1 0.3
v -0.4 0.2 0.3
v -0.3 0.1 0.3
v -0.3 0.2 0.3
v -0.2 0 0.3
v -0.2 0.2 0.3
v 0.5 0 0.3
v 0.5 0.2 0.3
v 0.6 0.1 0.3
v 0.6 0.2 0.3
v 0.7 0.1 0.3
v 0.7 0.2 0.3
v 0.8 0 0.3
v 0.8 0.2 0.3
v -0.6 0.5 -0.3
v -0.6 0.8 -0.3
v -0.5 0.5 -0.3
v -0.5 0.7 -0.3
v -0.2 0.5 -0.3
v -0.2 0.7 -0.3
v -0.1 0.5 -0.3
v -0.1 0.7 -0.3
v 0.3 0.5 -0.3
v 0.3 0.7 -0.3
v 0.4 0.5 -0.3
v 0.4 0.8 -0.3
v -0.7 0.2 -0.4
v -0.7 0.3 -0.4
v -0.7 0.5 -0.4
v -0.5 0 -0.4
v -0.5 0.2 -0.4
v -0.5 0.3 -0.4
v -0.4 0.1 -0.4
v -0.4 0.2 -0.4
v -0.3 0.1 -0.4
v -0.3 0.2 -0.4
v -0.2 0 -0.4
v -0.2 0.2 -0.4
v -0.2 0.3 -0.4
v 5.96046e-008 0.4 -0.4
v 5.96046e-008 0.5 -0.4
v 0.2 0.4 -0.4
v 0.2 0.5 -0.4
v 0.5 0 -0.4
v 0.5 0.2 -0.4
v 0.5 0.3 -0.4
v 0.6 0.1 -0.4
v 0.6 0.2 -0.4
v 0.7 0.1 -0.4
v 0.7 0.2 -0.4
v 0.8 0 -0.4
v 0.8 0.2 -0.4
v 0.8 0.3 -0.4
v 1 0.2 -0.4
v 1 0.3 -0.4
v 1 0.5 -0.4
v 5.96046e-008 0.4 -0.5
v 5.96046e-008 0.5 -0.5
v 0.2 0.4 -0.5
v 0.2 0.5 -0.5
v -0.5 0 0.4
v -0.2 0 0.4
v 0.5 0 0.4
v 0.8 0 0.4
v -0.5 0 0.3
v -0.2 0 0.3
v 0.5 0 0.3
v 0.8 0 0.3
v -0.5 0 -0.3
v -0.2 0 -0.3
v 0.5 0 -0.3
v 0.8 0 -0.3
v -0.5 0 -0.4
v -0.2 0 -0.4
v 0.5 0 -0.4
v 0.8 0 -0.4
v -0.7 0.2 0.4
v -0.5 0.2 0.4
v -0.2 0.2 0.4
v 0.5 0.2 0.4
v 0.8 0.2 0.4
v 1 0.2 0.4
v -0.5 0.2 0.3
v -0.4 0.2 0.3
v -0.3 0.2 0.3
v -0.2 0.2 0.3
v 0.5 0.2 0.3
v 0.6 0.2 0.3
v 0.7 0.2 0.3
v 0.8 0.2 0.3
v 0.9 0.2 0.3
v -0.7 0.2 0.1
v -0.6 0.2 0.1
v -0.7 0.2 -0.1
v -0.6 0.2 -0.1
v -0.5 0.2 -0.3
v -0.4 0.2 -0.3
v -0.3 0.2 -0.3
v -0.2 0.2 -0.3
v 0.5 0.2 -0.3
v 0.6 0.2 -0.3
v 0.7 0.2 -0.3
v 0.8 0.2 -0.3
v 0.9 0.2 -0.3
v -0.7 0.2 -0.4
v -0.5 0.2 -0.4
v -0.2 0.2 -0.4
v 0.5 0.2 -0.4
v 0.8 0.2 -0.4
v 1 0.2 -0.4
v 5.96046e-008 0.4 0.5
v 0.2 0.4 0.5
v 5.96046e-008 0.4 0.4
v 0.2 0.4 0.4
v 5.96046e-008 0.4 -0.4
v 0.2 0.4 -0.4
v 5.96046e-008 0.4 -0.5
v 0.2 0.4 -0.5
v 5.96046e-008 0.5 0.5
v 0.2 0.5 0.5
v -0.7 0.5 0.4
v 5.96046e-008 0.5 0.4
v 0.2 0.5 0.4
v 1 0.5 0.4
v -0.6 0.5 0.3
v -0.5 0.5 0.3
v -0.2 0.5 0.3
v -0.1 0.5 0.3
v 0.3 0.5 0.3
v 0.4 0.5 0.3
v -0.6 0.5 0.2
v 0.4 0.5 0.2
v 1 0.5 0.2
v -0.6 0.5 -0.2
v 0.4 0.5 -0.2
v 1 0.5 -0.2
v -0.6 0.5 -0.3
v -0.5 0.5 -0.3
v -0.2 0.5 -0.3
v -0.1 0.5 -0.3
v 0.3 0.5 -0.3
v 0.4 0.5 -0.3
v -0.7 0.5 -0.4
v 5.96046e-008 0.5 -0.4
v 0.2 0.5 -0.4
v 1 0.5 -0.4
v 5.96046e-008 0.5 -0.5
v 0.2 0.5 -0.5
v -0.6 0.8 0.3
v 0.4 0.8 0.3
v -0.6 0.8 -0.3
v 0.4 0.8 -0.3

# faces
f 5/5/1 2/5/1 1/5/1
f 6/4/1 3/4/1 2/4/1
f 6/5/1 2/5/1 5/5/1
f 7/5/1 4/5/1 3/5/1
f 7/4/1 3/4/1 6/4/1
f 8/5/1 4/5/1 7/5/1
f 9/2/1 6/2/1 5/2/1
f 9/2/1 7/2/1 6/2/1
f 9/2/1 8/2/1 7/2/1
f 10/2/1 8/2/1 9/2/1
f 15/4/1 12/4/1 11/4/1
f 15/1/1 13/1/1 12/1/1
f 16/4/1 14/4/1 13/4/1
f 16/1/1 13/1/1 15/1/1
f 17/4/1 15/4/1 11/4/1
f 17/4/1 16/4/1 15/4/1
f 18/4/1 14/4/1 16/4/1
f 18/4/1 16/4/1 17/4/1
f 23/1/1 20/1/1 19/1/1
f 24/1/1 20/1/1 23/1/1
f 25/1/1 22/1/1 21/1/1
f 26/1/1 22/1/1 25/1/1
f 31/2/1 28/2/1 27/2/1
f 32/2/1 28/2/1 31/2/1
f 33/2/1 30/2/1 29/2/1
f 34/2/1 30/2/1 33/2/1
f 39/1/1 36/1/1 35/1/1
f 40/1/1 36/1/1 39/1/1
f 41/1/1 38/1/1 37/1/1
f 42/1/1 38/1/1 41/1/1
f 43/1/2 44/1/2 47/1/2
f 47/1/2 44/1/2 48/1/2
f 45/1/2 46/1/2 49/1/2
f 49/1/2 46/1/2 50/1/2
f 51/2/2 52/2/2 55/2/2
f 55/2/2 52/2/2 56/2/2
f 53/2/2 54/2/2 57/2/2
f 57/2/2 54/2/2 58/2/2
f 59/4/2 60/4/2 63/4/2
f 60/1/2 61/1/2 63/1/2
f 61/4/2 62/4/2 64/4/2
f 63/1/2 61/1/2 64/1/2
f 59/4/2 63/4/2 65/4/2
f 63/4/2 64/4/2 65/4/2
f 64/4/2 62/4/2 66/4/2
f 65/4/2 64/4/2 66/4/2
f 67/1/2 68/1/2 71/1/2
f 71/1/2 68/1/2 72/1/2
f 69/1/2 70/1/2 73/1/2
f 73/1/2 70/1/2 74/1/2
f 75/5/2 76/5/2 77/5/2
f 77/5/2 76/5/2 78/5/2
f 78/5/2 76/5/2 79/5/2
f 79/5/2 76/5/2 80/5/2
f 80/5/2 76/5/2 81/5/2
f 81/5/2 76/5/2 82/5/2
f 77/2/2 78/2/2 83/2/2
f 78/4/2 79/4/2 83/4/2
f 79/3/2 80/3/2 84/3/2
f 83/4/2 79/4/2 84/4/2
f 80/4/2 81/4/2 85/4/2
f 84/3/2 80/3/2 85/3/2
f 81/2/2 82/2/2 86/2/2
f 85/4/2 81/4/2 86/4/2
f 77/2/2 83/2/2 87/2/2
f 83/2/2 84/2/2 87/2/2
f 84/3/2 85/3/2 88/3/2
f 87/2/2 84/2/2 88/2/2
f 85/2/2 86/2/2 89/2/2
f 88/3/2 85/3/2 89/3/2
f 86/2/2 82/2/2 90/2/2
f 89/2/2 86/2/2 90/2/2
f 93/2/3 92/2/3 91/2/3
f 94/2/3 92/2/3 93/2/3
f 99/5/3 96/5/3 95/5/3
f 100/2/3 97/2/3 96/2/3
f 100/5/3 96/5/3 99/5/3
f 101/1/3 99/1/3 98/1/3
f 101/1/3 100/1/3 99/1/3
f 102/1/3 100/1/3 101/1/3
f 103/1/3 101/1/3 98/1/3
f 103/4/3 102/4/3 101/4/3
f 104/1/3 100/1/3 102/1/3
f 104/4/3 102/4/3 103/4/3
f 105/1/3 103/1/3 98/1/3
f 105/1/3 104/1/3 103/1/3
f 106/1/3 100/1/3 104/1/3
f 106/1/3 104/1/3 105/1/3
f 107/2/3 97/2/3 100/2/3
f 107/1/3 100/1/3 106/1/3
f 108/2/3 97/2/3 107/2/3
f 109/2/3 97/2/3 108/2/3
f 110/2/3 108/2/3 107/2/3
f 113/5/3 107/5/3 106/5/3
f 114/2/3 111/2/3 110/2/3
f 114/2/3 110/2/3 107/2/3
f 114/5/3 107/5/3 113/5/3
f 115/1/3 113/1/3 112/1/3
f 115/1/3 114/1/3 113/1/3
f 116/1/3 114/1/3 115/1/3
f 117/1/3 115/1/3 112/1/3
f 117/4/3 116/4/3 115/4/3
f 118/1/3 114/1/3 116/1/3
f 118/4/3 116/4/3 117/4/3
f 119/1/3 117/1/3 112/1/3
f 119/1/3 118/1/3 117/1/3
f 120/1/3 114/1/3 118/1/3
f 120/1/3 118/1/3 119/1/3
f 121/2/3 111/2/3 114/2/3
f 121/1/3 114/1/3 120/1/3
f 122/5/3 121/5/3 120/5/3
f 123/2/3 111/2/3 121/2/3
f 123/5/3 121/5/3 122/5/3
f 124/2/3 111/2/3 123/2/3
f 127/4/3 126/4/3 125/4/3
f 128/4/3 126/4/3 127/4/3
f 129/1/3 128/1/3 127/1/3
f 130/4/3 126/4/3 128/4/3
f 130/1/3 128/1/3 129/1/3
f 131/4/3 130/4/3 129/4/3
f 132/4/3 126/4/3 130/4/3
f 132/4/3 130/4/3 131/4/3
f 133/1/3 132/1/3 131/1/3
f 134/4/3 126/4/3 132/4/3
f 134/1/3 132/1/3 133/1/3
f 135/4/3 134/4/3 133/4/3
f 136/4/3 126/4/3 134/4/3
f 136/4/3 134/4/3 135/4/3
f 139/1/3 138/1/3 137/1/3
f 140/1/3 138/1/3 139/1/3
f 141/1/3 139/1/3 137/1/3
f 141/4/3 140/4/3 139/4/3
f 142/4/3 140/4/3 141/4/3
f 143/1/3 141/1/3 137/1/3
f 143/1/3 142/1/3 141/1/3
f 144/1/3 142/1/3 143/1/3
f 147/1/3 146/1/3 145/1/3
f 148/1/3 146/1/3 147/1/3
f 149/1/3 147/1/3 145/1/3
f 149/4/3 148/4/3 147/4/3
f 150/4/3 148/4/3 149/4/3
f 151/1/3 149/1/3 145/1/3
f 151/1/3 150/1/3 149/1/3
f 152/1/3 150/1/3 151/1/3
f 153/1/4 154/1/4 155/1/4
f 155/1/4 154/1/4 156/1/4
f 153/1/4 155/1/4 157/1/4
f 155/4/4 156/4/4 157/4/4
f 157/4/4 156/4/4 158/4/4
f 153/1/4 157/1/4 159/1/4
f 157/1/4 158/1/4 159/1/4
f 159/1/4 158/1/4 160/1/4
f 161/1/4 162/1/4 163/1/4
f 163/1/4 162/1/4 164/1/4
f 161/1/4 163/1/4 165/1/4
f 163/4/4 164/4/4 165/4/4
f 165/4/4 164/4/4 166/4/4
f 161/1/4 165/1/4 167/1/4
f 165/1/4 166/1/4 167/1/4
f 167/1/4 166/1/4 168/1/4
f 169/4/4 170/4/4 171/4/4
f 171/4/4 170/4/4 172/4/4
f 171/1/4 172/1/4 173/1/4
f 172/4/4 170/4/4 174/4/4
f 173/1/4 172/1/4 174/1/4
f 173/4/4 174/4/4 175/4/4
f 174/4/4 170/4/4 176/4/4
f 175/4/4 174/4/4 176/4/4
f 175/1/4 176/1/4 177/1/4
f 176/4/4 170/4/4 178/4/4
f 177/1/4 176/1/4 178/1/4
f 177/4/4 178/4/4 179/4/4
f 178/4/4 170/4/4 180/4/4
f 179/4/4 178/4/4 180/4/4
f 181/5/4 182/5/4 185/5/4
f 182/2/4 183/2/4 186/2/4
f 185/5/4 182/5/4 186/5/4
f 184/1/4 185/1/4 187/1/4
f 185/1/4 186/1/4 187/1/4
f 187/1/4 186/1/4 188/1/4
f 184/1/4 187/1/4 189/1/4
f 187/4/4 188/4/4 189/4/4
f 188/1/4 186/1/4 190/1/4
f 189/4/4 188/4/4 190/4/4
f 184/1/4 189/1/4 191/1/4
f 189/1/4 190/1/4 191/1/4
f 190/1/4 186/1/4 192/1/4
f 191/1/4 190/1/4 192/1/4
f 186/2/4 183/2/4 193/2/4
f 192/1/4 186/1/4 193/1/4
f 193/2/4 183/2/4 194/2/4
f 194/2/4 183/2/4 195/2/4
f 193/2/4 194/2/4 196/2/4
f 192/5/4 193/5/4 199/5/4
f 196/2/4 197/2/4 200/2/4
f 193/2/4 196/2/4 200/2/4
f 199/5/4 193/5/4 200/5/4
f 198/1/4 199/1/4 201/1/4
f 199/1/4 200/1/4 201/1/4
f 201/1/4 200/1/4 202/1/4
f 198/1/4 201/1/4 203/1/4
f 201/4/4 202/4/4 203/4/4
f 202/1/4 200/1/4 204/1/4
f 203/4/4 202/4/4 204/4/4
f 198/1/4 203/1/4 205/1/4
f 203/1/4 204/1/4 205/1/4
f 204/1/4 200/1/4 206/1/4
f 205/1/4 204/1/4 206/1/4
f 200/2/4 197/2/4 207/2/4
f 206/1/4 200/1/4 207/1/4
f 206/5/4 207/5/4 208/5/4
f 207/2/4 197/2/4 209/2/4
f 208/5/4 207/5/4 209/5/4
f 209/2/4 197/2/4 210/2/4
f 211/2/4 212/2/4 213/2/4
f 213/2/4 212/2/4 214/2/4
f 219/1/5 216/1/5 215/1/5
f 220/1/5 216/1/5 219/1/5
f 221/1/5 218/1/5 217/1/5
f 222/1/5 218/1/5 221/1/5
f 227/1/5 224/1/5 223/1/5
f 228/1/5 224/1/5 227/1/5
f 229/1/5 226/1/5 225/1/5
f 230/1/5 226/1/5 229/1/5
f 237/5/5 232/5/5 231/5/5
f 240/5/5 234/5/5 233/5/5
f 241/5/5 234/5/5 240/5/5
f 244/5/5 236/5/5 235/5/5
f 245/5/5 236/5/5 244/5/5
f 246/5/5 237/5/5 231/5/5
f 247/5/5 237/5/5 246/5/5
f 248/4/5 247/4/5 246/4/5
f 249/5/5 237/5/5 247/5/5
f 249/4/5 247/4/5 248/4/5
f 250/3/5 243/3/5 242/3/5
f 250/5/5 237/5/5 249/5/5
f 250/5/5 249/5/5 248/5/5
f 250/3/5 239/3/5 238/3/5
f 250/3/5 238/3/5 237/3/5
f 250/3/5 245/3/5 244/3/5
f 250/3/5 244/3/5 243/3/5
f 250/3/5 240/3/5 239/3/5
f 250/3/5 242/3/5 241/3/5
f 250/3/5 241/3/5 240/3/5
f 251/3/5 245/3/5 250/3/5
f 252/3/5 245/3/5 251/3/5
f 253/3/5 245/3/5 252/3/5
f 254/3/5 245/3/5 253/3/5
f 255/3/5 245/3/5 254/3/5
f 256/3/5 245/3/5 255/3/5
f 257/3/5 245/3/5 256/3/5
f 258/5/5 236/5/5 245/5/5
f 258/3/5 245/3/5 257/3/5
f 259/5/5 250/5/5 248/5/5
f 260/5/5 250/5/5 259/5/5
f 261/5/5 254/5/5 253/5/5
f 262/5/5 254/5/5 261/5/5
f 263/5/5 258/5/5 257/5/5
f 264/5/5 236/5/5 258/5/5
f 264/5/5 258/5/5 263/5/5
f 267/2/5 266/2/5 265/2/5
f 268/2/5 266/2/5 267/2/5
f 271/2/5 270/2/5 269/2/5
f 272/2/5 270/2/5 271/2/5
f 273/2/6 274/2/6 276/2/6
f 276/2/6 274/2/6 277/2/6
f 275/2/6 276/2/6 279/2/6
f 277/2/6 278/2/6 279/2/6
f 276/2/6 277/2/6 279/2/6
f 279/2/6 278/2/6 280/2/6
f 280/2/6 278/2/6 281/2/6
f 281/2/6 278/2/6 282/2/6
f 282/2/6 278/2/6 283/2/6
f 283/2/6 278/2/6 284/2/6
f 275/2/6 279/2/6 285/2/6
f 284/2/6 278/2/6 286/2/6
f 286/2/6 278/2/6 287/2/6
f 275/2/6 285/2/6 288/2/6
f 286/3/6 287/3/6 289/3/6
f 289/3/6 287/3/6 290/3/6
f 275/2/6 288/2/6 291/2/6
f 289/2/6 290/2/6 296/2/6
f 294/2/6 295/2/6 297/2/6
f 295/2/6 296/2/6 297/2/6
f 275/2/6 291/2/6 297/2/6
f 291/2/6 292/2/6 297/2/6
f 293/2/6 294/2/6 297/2/6
f 292/2/6 293/2/6 297/2/6
f 297/2/6 296/2/6 298/2/6
f 298/2/6 296/2/6 299/2/6
f 296/2/6 290/2/6 300/2/6
f 299/2/6 296/2/6 300/2/6
f 298/2/6 299/2/6 301/2/6
f 301/2/6 299/2/6 302/2/6
f 303/4/6 304/4/6 305/4/6
f 305/4/6 304/4/6 306/4/6
