# MagicaVoxel @ Ephtracy

# group
o 

# material
mtllib Truck.mtl
usemtl palette

# normals
vn -1 0 0
vn 1 0 0
vn 0 0 1
vn 0 0 -1
vn 0 -1 0
vn 0 1 0

# texcoords
vt 0.158203 0.5
vt 0.845703 0.5
vt 0.958984 0.5
vt 0.970703 0.5
vt 0.974609 0.5
vt 0.990234 0.5

# verts
v 1.3 0.8 -2.4
v 1.3 0.8 -2.5
v 1.3 1 -2.4
v 1.3 1 -2.5
v 1.4 0.4 -0.2
v 1.4 0.4 -0.6
v 1.4 0.4 -1
v 1.4 0.4 -1.4
v 1.4 0.4 -2
v 1.4 0.4 -2.4
v 1.4 0.5 -0.1
v 1.4 0.5 -0.2
v 1.4 0.5 -0.3
v 1.4 0.5 -0.5
v 1.4 0.5 -0.6
v 1.4 0.5 -1
v 1.4 0.5 -1.1
v 1.4 0.5 -1.3
v 1.4 0.5 -1.4
v 1.4 0.5 -1.7
v 1.4 0.5 -1.8
v 1.4 0.5 -2
v 1.4 0.5 -2.1
v 1.4 0.5 -2.3
v 1.4 0.5 -2.4
v 1.4 0.5 -2.6
v 1.4 0.6 0
v 1.4 0.6 -0.1
v 1.4 0.6 -0.2
v 1.4 0.6 -0.3
v 1.4 0.6 -0.5
v 1.4 0.6 -0.6
v 1.4 0.6 -1
v 1.4 0.6 -1.1
v 1.4 0.6 -1.3
v 1.4 0.6 -1.4
v 1.4 0.6 -1.7
v 1.4 0.6 -1.8
v 1.4 0.6 -2
v 1.4 0.6 -2.4
v 1.4 0.6 -2.6
v 1.4 0.7 0
v 1.4 0.7 -1.7
v 1.4 0.7 -2.1
v 1.4 0.7 -2.3
v 1.4 0.8 -2
v 1.4 0.8 -2.4
v 1.4 0.8 -2.5
v 1.4 1 -2.2
v 1.4 1 -2.4
v 1.4 1 -2.5
v 1.4 1 -2.6
v 1.4 1.2 -2.2
v 1.4 1.2 -2.6
v 1.4 1.3 -1.8
v 1.4 1.3 -2.6
v 1.4 1.5 0
v 1.4 1.5 -1.7
v 1.4 1.6 0
v 1.4 1.6 -1.7
v 1.6 0.5 -1.7
v 1.6 0.5 -1.8
v 1.6 0.6 -1.7
v 1.6 0.6 -1.8
v 1.6 1.3 -1.8
v 1.6 1.3 -2.1
v 1.6 1.4 -2
v 1.6 1.4 -2.1
v 1.6 1.5 -1.8
v 1.6 1.5 -2
v 1.8 0.6 -1.7
v 1.8 0.6 -1.8
v 1.8 0.7 -1.7
v 1.8 0.7 -1.8
v 2.2 0.4 -1
v 2.2 0.4 -1.4
v 2.2 0.4 -2
v 2.2 0.4 -2.4
v 2.2 0.5 -1
v 2.2 0.5 -1.1
v 2.2 0.5 -1.3
v 2.2 0.5 -1.4
v 2.2 0.5 -2
v 2.2 0.5 -2.1
v 2.2 0.5 -2.3
v 2.2 0.5 -2.4
v 2.3 0.4 -0.2
v 2.3 0.4 -0.6
v 2.3 0.5 -0.1
v 2.3 0.5 -0.2
v 2.3 0.5 -0.3
v 2.3 0.5 -0.5
v 2.3 0.5 -0.6
v 2.3 0.5 -1
v 2.3 0.5 -1.4
v 2.3 0.5 -1.6
v 2.3 0.5 -2.4
v 2.3 0.5 -2.6
v 2.3 0.6 -0.1
v 2.3 0.6 -0.2
v 2.3 0.6 -0.3
v 2.3 0.6 -0.5
v 2.3 0.6 -0.6
v 2.3 0.6 -1
v 2.3 0.6 -1.4
v 2.3 0.6 -1.6
v 2.3 0.6 -2.4
v 2.3 0.6 -2.5
v 2.3 0.6 -2.6
v 1.5 0.4 -0.2
v 1.5 0.4 -0.6
v 1.5 0.4 -1
v 1.5 0.4 -1.4
v 1.5 0.5 -0.1
v 1.5 0.5 -0.2
v 1.5 0.5 -0.3
v 1.5 0.5 -0.5
v 1.5 0.5 -0.6
v 1.5 0.5 -1
v 1.5 0.5 -1.1
v 1.5 0.5 -1.3
v 1.5 0.5 -1.4
v 1.5 0.5 -1.6
v 1.5 0.5 -2.4
v 1.5 0.5 -2.6
v 1.5 0.6 -0.1
v 1.5 0.6 -0.2
v 1.5 0.6 -0.3
v 1.5 0.6 -0.5
v 1.5 0.6 -0.6
v 1.5 0.6 -1
v 1.5 0.6 -1.4
v 1.5 0.6 -1.6
v 1.5 0.6 -2.4
v 1.5 0.6 -2.5
v 1.5 0.6 -2.6
v 1.6 0.4 -2
v 1.6 0.4 -2.4
v 1.6 0.5 -2
v 1.6 0.5 -2.1
v 1.6 0.5 -2.3
v 1.6 0.5 -2.4
v 2.2 1.3 -1.8
v 2.2 1.3 -2.1
v 2.2 1.4 -2
v 2.2 1.4 -2.1
v 2.2 1.5 -1.8
v 2.2 1.5 -2
v 2.3 0.5 -1.7
v 2.3 0.5 -1.8
v 2.3 0.6 -1.7
v 2.3 0.6 -1.8
v 2.3 0.7 -1.7
v 2.3 0.7 -1.8
v 2.4 0.4 -0.2
v 2.4 0.4 -0.6
v 2.4 0.4 -1
v 2.4 0.4 -1.4
v 2.4 0.4 -2
v 2.4 0.4 -2.4
v 2.4 0.5 -0.1
v 2.4 0.5 -0.2
v 2.4 0.5 -0.3
v 2.4 0.5 -0.5
v 2.4 0.5 -0.6
v 2.4 0.5 -1
v 2.4 0.5 -1.1
v 2.4 0.5 -1.3
v 2.4 0.5 -1.4
v 2.4 0.5 -1.7
v 2.4 0.5 -1.8
v 2.4 0.5 -2
v 2.4 0.5 -2.1
v 2.4 0.5 -2.3
v 2.4 0.5 -2.4
v 2.4 0.5 -2.6
v 2.4 0.6 0
v 2.4 0.6 -0.1
v 2.4 0.6 -0.2
v 2.4 0.6 -0.3
v 2.4 0.6 -0.5
v 2.4 0.6 -0.6
v 2.4 0.6 -1
v 2.4 0.6 -1.1
v 2.4 0.6 -1.3
v 2.4 0.6 -1.4
v 2.4 0.6 -1.7
v 2.4 0.6 -1.8
v 2.4 0.6 -2
v 2.4 0.6 -2.4
v 2.4 0.6 -2.6
v 2.4 0.7 0
v 2.4 0.7 -1.7
v 2.4 0.7 -2.1
v 2.4 0.7 -2.3
v 2.4 0.8 -2
v 2.4 0.8 -2.4
v 2.4 0.8 -2.5
v 2.4 1 -2.2
v 2.4 1 -2.4
v 2.4 1 -2.5
v 2.4 1 -2.6
v 2.4 1.2 -2.2
v 2.4 1.2 -2.6
v 2.4 1.3 -1.8
v 2.4 1.3 -2.6
v 2.4 1.5 0
v 2.4 1.5 -1.7
v 2.4 1.6 0
v 2.4 1.6 -1.7
v 2.5 0.8 -2.4
v 2.5 0.8 -2.5
v 2.5 1 -2.4
v 2.5 1 -2.5
v 1.4 0.6 0
v 1.4 0.7 0
v 1.4 1.5 0
v 1.4 1.6 0
v 2.4 0.6 0
v 2.4 0.7 0
v 2.4 1.5 0
v 2.4 1.6 0
v 1.4 0.5 -0.1
v 1.4 0.6 -0.1
v 1.5 0.5 -0.1
v 1.5 0.6 -0.1
v 2.3 0.5 -0.1
v 2.3 0.6 -0.1
v 2.4 0.5 -0.1
v 2.4 0.6 -0.1
v 1.4 0.4 -0.2
v 1.4 0.5 -0.2
v 1.5 0.4 -0.2
v 1.5 0.5 -0.2
v 2.3 0.4 -0.2
v 2.3 0.5 -0.2
v 2.4 0.4 -0.2
v 2.4 0.5 -0.2
v 1.4 0.4 -1
v 1.4 0.5 -1
v 1.5 0.4 -1
v 1.5 0.5 -1
v 1.5 0.6 -1
v 2.2 0.4 -1
v 2.2 0.5 -1
v 2.3 0.4 -1
v 2.3 0.5 -1
v 2.3 0.6 -1
v 2.4 0.4 -1
v 2.4 0.5 -1
v 1.5 0.5 -1.6
v 1.5 0.6 -1.6
v 2.3 0.5 -1.6
v 2.3 0.6 -1.6
v 1.4 0.5 -1.8
v 1.4 0.6 -1.8
v 1.4 1.3 -1.8
v 1.5 0.6 -1.8
v 1.5 1.2 -1.8
v 1.6 0.5 -1.8
v 1.6 0.6 -1.8
v 1.6 1.2 -1.8
v 1.6 1.3 -1.8
v 1.6 1.5 -1.8
v 1.8 0.6 -1.8
v 1.8 0.7 -1.8
v 2.2 1.2 -1.8
v 2.2 1.3 -1.8
v 2.2 1.5 -1.8
v 2.3 0.5 -1.8
v 2.3 0.6 -1.8
v 2.3 0.7 -1.8
v 2.3 1.2 -1.8
v 2.4 0.5 -1.8
v 2.4 0.6 -1.8
v 2.4 1.3 -1.8
v 1.4 0.4 -2
v 1.4 0.5 -2
v 1.5 0.4 -2
v 1.5 0.5 -2
v 1.6 0.4 -2
v 1.6 0.5 -2
v 2.2 0.4 -2
v 2.2 0.5 -2
v 2.3 0.4 -2
v 2.3 0.5 -2
v 2.4 0.4 -2
v 2.4 0.5 -2
v 1.3 0.8 -2.4
v 1.3 1 -2.4
v 1.4 0.8 -2.4
v 1.4 1 -2.4
v 2.4 0.8 -2.4
v 2.4 1 -2.4
v 2.5 0.8 -2.4
v 2.5 1 -2.4
v 1.4 0.4 -0.6
v 1.4 0.5 -0.6
v 1.5 0.4 -0.6
v 1.5 0.5 -0.6
v 2.3 0.4 -0.6
v 2.3 0.5 -0.6
v 2.4 0.4 -0.6
v 2.4 0.5 -0.6
v 1.4 0.4 -1.4
v 1.4 0.5 -1.4
v 1.5 0.4 -1.4
v 1.5 0.5 -1.4
v 1.5 0.6 -1.4
v 2.2 0.4 -1.4
v 2.2 0.5 -1.4
v 2.3 0.4 -1.4
v 2.3 0.5 -1.4
v 2.3 0.6 -1.4
v 2.4 0.4 -1.4
v 2.4 0.5 -1.4
v 1.4 0.5 -1.7
v 1.4 0.6 -1.7
v 1.4 0.7 -1.7
v 1.4 1.5 -1.7
v 1.4 1.6 -1.7
v 1.5 0.6 -1.7
v 1.5 0.7 -1.7
v 1.6 0.5 -1.7
v 1.6 0.6 -1.7
v 1.8 0.6 -1.7
v 1.8 0.7 -1.7
v 2.3 0.5 -1.7
v 2.3 0.6 -1.7
v 2.3 0.7 -1.7
v 2.4 0.5 -1.7
v 2.4 0.6 -1.7
v 2.4 0.7 -1.7
v 2.4 1.5 -1.7
v 2.4 1.6 -1.7
v 1.6 1.4 -2
v 1.6 1.5 -2
v 2.2 1.4 -2
v 2.2 1.5 -2
v 1.6 1.3 -2.1
v 1.6 1.4 -2.1
v 2.2 1.3 -2.1
v 2.2 1.4 -2.1
v 1.4 0.4 -2.4
v 1.4 0.5 -2.4
v 1.5 0.4 -2.4
v 1.5 0.5 -2.4
v 1.5 0.6 -2.4
v 1.6 0.4 -2.4
v 1.6 0.5 -2.4
v 2.2 0.4 -2.4
v 2.2 0.5 -2.4
v 2.3 0.4 -2.4
v 2.3 0.5 -2.4
v 2.3 0.6 -2.4
v 2.4 0.4 -2.4
v 2.4 0.5 -2.4
v 1.3 0.8 -2.5
v 1.3 1 -2.5
v 1.4 0.8 -2.5
v 1.4 1 -2.5
v 2.4 0.8 -2.5
v 2.4 1 -2.5
v 2.5 0.8 -2.5
v 2.5 1 -2.5
v 1.4 0.5 -2.6
v 1.4 0.6 -2.6
v 1.4 1 -2.6
v 1.4 1.2 -2.6
v 1.4 1.3 -2.6
v 1.5 0.5 -2.6
v 1.5 0.6 -2.6
v 1.5 0.7 -2.6
v 1.5 0.9 -2.6
v 1.7 0.7 -2.6
v 1.7 0.9 -2.6
v 2.1 0.7 -2.6
v 2.1 0.9 -2.6
v 2.3 0.5 -2.6
v 2.3 0.6 -2.6
v 2.3 0.7 -2.6
v 2.3 0.9 -2.6
v 2.4 0.5 -2.6
v 2.4 0.6 -2.6
v 2.4 1 -2.6
v 2.4 1.2 -2.6
v 2.4 1.3 -2.6
v 1.4 0.4 -0.2
v 1.5 0.4 -0.2
v 2.3 0.4 -0.2
v 2.4 0.4 -0.2
v 1.4 0.4 -0.6
v 1.5 0.4 -0.6
v 2.3 0.4 -0.6
v 2.4 0.4 -0.6
v 1.4 0.4 -1
v 1.5 0.4 -1
v 2.2 0.4 -1
v 2.3 0.4 -1
v 2.4 0.4 -1
v 1.4 0.4 -1.4
v 1.5 0.4 -1.4
v 2.2 0.4 -1.4
v 2.3 0.4 -1.4
v 2.4 0.4 -1.4
v 1.4 0.4 -2
v 1.5 0.4 -2
v 1.6 0.4 -2
v 2.2 0.4 -2
v 2.3 0.4 -2
v 2.4 0.4 -2
v 1.4 0.4 -2.4
v 1.5 0.4 -2.4
v 1.6 0.4 -2.4
v 2.2 0.4 -2.4
v 2.3 0.4 -2.4
v 2.4 0.4 -2.4
v 1.4 0.5 -0.1
v 1.5 0.5 -0.1
v 2.3 0.5 -0.1
v 2.4 0.5 -0.1
v 1.4 0.5 -0.2
v 1.5 0.5 -0.2
v 2.3 0.5 -0.2
v 2.4 0.5 -0.2
v 1.4 0.5 -0.6
v 1.5 0.5 -0.6
v 2.3 0.5 -0.6
v 2.4 0.5 -0.6
v 1.4 0.5 -1
v 1.5 0.5 -1
v 2.2 0.5 -1
v 2.3 0.5 -1
v 2.4 0.5 -1
v 1.5 0.5 -1.1
v 2.2 0.5 -1.1
v 1.5 0.5 -1.3
v 2.2 0.5 -1.3
v 1.4 0.5 -1.4
v 1.5 0.5 -1.4
v 2.2 0.5 -1.4
v 2.3 0.5 -1.4
v 2.4 0.5 -1.4
v 1.5 0.5 -1.6
v 2.3 0.5 -1.6
v 1.4 0.5 -1.7
v 1.6 0.5 -1.7
v 2.3 0.5 -1.7
v 2.4 0.5 -1.7
v 1.4 0.5 -1.8
v 1.6 0.5 -1.8
v 2.3 0.5 -1.8
v 2.4 0.5 -1.8
v 1.4 0.5 -2
v 1.5 0.5 -2
v 1.6 0.5 -2
v 2.2 0.5 -2
v 2.3 0.5 -2
v 2.4 0.5 -2
v 1.6 0.5 -2.1
v 2.2 0.5 -2.1
v 1.6 0.5 -2.3
v 2.2 0.5 -2.3
v 1.4 0.5 -2.4
v 1.5 0.5 -2.4
v 1.6 0.5 -2.4
v 2.2 0.5 -2.4
v 2.3 0.5 -2.4
v 2.4 0.5 -2.4
v 1.4 0.5 -2.6
v 1.5 0.5 -2.6
v 2.3 0.5 -2.6
v 2.4 0.5 -2.6
v 1.4 0.6 0
v 2.4 0.6 0
v 1.4 0.6 -0.1
v 1.5 0.6 -0.1
v 2.3 0.6 -0.1
v 2.4 0.6 -0.1
v 1.5 0.6 -0.2
v 2.3 0.6 -0.2
v 1.5 0.6 -0.3
v 2.3 0.6 -0.3
v 1.5 0.6 -0.5
v 2.3 0.6 -0.5
v 1.5 0.6 -0.6
v 2.3 0.6 -0.6
v 1.5 0.6 -1
v 2.3 0.6 -1
v 1.5 0.6 -1.4
v 2.3 0.6 -1.4
v 1.5 0.6 -1.6
v 2.3 0.6 -1.6
v 1.5 0.6 -2.4
v 2.3 0.6 -2.4
v 1.5 0.6 -2.5
v 2.3 0.6 -2.5
v 1.5 0.6 -2.6
v 2.3 0.6 -2.6
v 1.3 0.8 -2.4
v 1.4 0.8 -2.4
v 2.4 0.8 -2.4
v 2.5 0.8 -2.4
v 1.3 0.8 -2.5
v 1.4 0.8 -2.5
v 2.4 0.8 -2.5
v 2.5 0.8 -2.5
v 1.6 0.6 -1.7
v 1.8 0.6 -1.7
v 1.6 0.6 -1.8
v 1.8 0.6 -1.8
v 1.8 0.7 -1.7
v 2.3 0.7 -1.7
v 1.8 0.7 -1.8
v 2.3 0.7 -1.8
v 1.3 1 -2.4
v 1.4 1 -2.4
v 2.4 1 -2.4
v 2.5 1 -2.4
v 1.3 1 -2.5
v 1.4 1 -2.5
v 2.4 1 -2.5
v 2.5 1 -2.5
v 1.4 1.3 -1.8
v 1.6 1.3 -1.8
v 2.2 1.3 -1.8
v 2.4 1.3 -1.8
v 1.6 1.3 -2.1
v 2.2 1.3 -2.1
v 1.4 1.3 -2.6
v 2.4 1.3 -2.6
v 1.6 1.4 -2
v 2.2 1.4 -2
v 1.6 1.4 -2.1
v 2.2 1.4 -2.1
v 1.6 1.5 -1.8
v 2.2 1.5 -1.8
v 1.6 1.5 -2
v 2.2 1.5 -2
v 1.4 1.6 0
v 2.4 1.6 0
v 1.5 1.6 -0.1
v 2.3 1.6 -0.1
v 1.5 1.6 -1.6
v 2.3 1.6 -1.6
v 1.4 1.6 -1.7
v 2.4 1.6 -1.7

# faces
f 3/2/1 2/2/1 1/2/1
f 4/2/1 2/2/1 3/2/1
f 12/6/1 6/6/1 5/6/1
f 13/6/1 6/6/1 12/6/1
f 14/6/1 6/6/1 13/6/1
f 15/6/1 6/6/1 14/6/1
f 16/6/1 8/6/1 7/6/1
f 17/6/1 8/6/1 16/6/1
f 18/6/1 8/6/1 17/6/1
f 19/6/1 8/6/1 18/6/1
f 22/6/1 10/6/1 9/6/1
f 23/6/1 10/6/1 22/6/1
f 24/6/1 10/6/1 23/6/1
f 25/6/1 10/6/1 24/6/1
f 28/5/1 12/5/1 11/5/1
f 29/6/1 13/6/1 12/6/1
f 29/5/1 12/5/1 28/5/1
f 30/3/1 14/3/1 13/3/1
f 30/6/1 13/6/1 29/6/1
f 31/6/1 15/6/1 14/6/1
f 31/3/1 14/3/1 30/3/1
f 32/5/1 16/5/1 15/5/1
f 32/6/1 15/6/1 31/6/1
f 33/6/1 17/6/1 16/6/1
f 33/5/1 16/5/1 32/5/1
f 34/3/1 18/3/1 17/3/1
f 34/6/1 17/6/1 33/6/1
f 35/6/1 19/6/1 18/6/1
f 35/3/1 18/3/1 34/3/1
f 36/5/1 20/5/1 19/5/1
f 36/6/1 19/6/1 35/6/1
f 37/5/1 20/5/1 36/5/1
f 38/5/1 22/5/1 21/5/1
f 39/6/1 23/6/1 22/6/1
f 39/5/1 22/5/1 38/5/1
f 40/5/1 26/5/1 25/5/1
f 40/6/1 25/6/1 24/6/1
f 41/5/1 26/5/1 40/5/1
f 42/4/1 35/4/1 34/4/1
f 42/4/1 30/4/1 29/4/1
f 42/4/1 28/4/1 27/4/1
f 42/4/1 29/4/1 28/4/1
f 42/4/1 36/4/1 35/4/1
f 42/4/1 31/4/1 30/4/1
f 42/4/1 32/4/1 31/4/1
f 42/4/1 33/4/1 32/4/1
f 42/4/1 34/4/1 33/4/1
f 42/4/1 37/4/1 36/4/1
f 43/4/1 37/4/1 42/4/1
f 44/6/1 23/6/1 39/6/1
f 44/3/1 24/3/1 23/3/1
f 45/6/1 40/6/1 24/6/1
f 45/3/1 24/3/1 44/3/1
f 46/6/1 44/6/1 39/6/1
f 46/2/1 39/2/1 38/2/1
f 46/6/1 45/6/1 44/6/1
f 47/2/1 41/2/1 40/2/1
f 47/6/1 45/6/1 46/6/1
f 47/6/1 40/6/1 45/6/1
f 48/2/1 41/2/1 47/2/1
f 49/2/1 47/2/1 46/2/1
f 50/2/1 47/2/1 49/2/1
f 51/2/1 41/2/1 48/2/1
f 52/2/1 41/2/1 51/2/1
f 53/6/1 50/6/1 49/6/1
f 53/2/1 49/2/1 46/2/1
f 53/6/1 52/6/1 51/6/1
f 53/6/1 51/6/1 50/6/1
f 54/6/1 52/6/1 53/6/1
f 55/2/1 46/2/1 38/2/1
f 55/2/1 53/2/1 46/2/1
f 55/2/1 54/2/1 53/2/1
f 56/2/1 54/2/1 55/2/1
f 57/3/1 43/3/1 42/3/1
f 58/3/1 43/3/1 57/3/1
f 59/4/1 58/4/1 57/4/1
f 60/4/1 58/4/1 59/4/1
f 63/5/1 62/5/1 61/5/1
f 64/5/1 62/5/1 63/5/1
f 67/3/1 66/3/1 65/3/1
f 68/3/1 66/3/1 67/3/1
f 69/3/1 67/3/1 65/3/1
f 70/3/1 67/3/1 69/3/1
f 73/5/1 72/5/1 71/5/1
f 74/5/1 72/5/1 73/5/1
f 79/3/1 76/3/1 75/3/1
f 80/3/1 76/3/1 79/3/1
f 81/3/1 76/3/1 80/3/1
f 82/3/1 76/3/1 81/3/1
f 83/3/1 78/3/1 77/3/1
f 84/3/1 78/3/1 83/3/1
f 85/3/1 78/3/1 84/3/1
f 86/3/1 78/3/1 85/3/1
f 90/6/1 88/6/1 87/6/1
f 91/6/1 88/6/1 90/6/1
f 92/6/1 88/6/1 91/6/1
f 93/6/1 88/6/1 92/6/1
f 99/5/1 90/5/1 89/5/1
f 100/6/1 91/6/1 90/6/1
f 100/5/1 90/5/1 99/5/1
f 101/3/1 92/3/1 91/3/1
f 101/6/1 91/6/1 100/6/1
f 102/6/1 93/6/1 92/6/1
f 102/3/1 92/3/1 101/3/1
f 103/5/1 94/5/1 93/5/1
f 103/6/1 93/6/1 102/6/1
f 104/5/1 94/5/1 103/5/1
f 105/5/1 96/5/1 95/5/1
f 106/5/1 96/5/1 105/5/1
f 107/5/1 98/5/1 97/5/1
f 108/5/1 98/5/1 107/5/1
f 109/5/1 98/5/1 108/5/1
f 110/6/2 111/6/2 115/6/2
f 115/6/2 111/6/2 116/6/2
f 116/6/2 111/6/2 117/6/2
f 117/6/2 111/6/2 118/6/2
f 112/6/2 113/6/2 119/6/2
f 119/6/2 113/6/2 120/6/2
f 120/6/2 113/6/2 121/6/2
f 121/6/2 113/6/2 122/6/2
f 114/5/2 115/5/2 126/5/2
f 115/6/2 116/6/2 127/6/2
f 126/5/2 115/5/2 127/5/2
f 116/3/2 117/3/2 128/3/2
f 127/6/2 116/6/2 128/6/2
f 117/6/2 118/6/2 129/6/2
f 128/3/2 117/3/2 129/3/2
f 118/5/2 119/5/2 130/5/2
f 129/6/2 118/6/2 130/6/2
f 130/5/2 119/5/2 131/5/2
f 122/5/2 123/5/2 132/5/2
f 132/5/2 123/5/2 133/5/2
f 124/5/2 125/5/2 134/5/2
f 134/5/2 125/5/2 135/5/2
f 135/5/2 125/5/2 136/5/2
f 137/3/2 138/3/2 139/3/2
f 139/3/2 138/3/2 140/3/2
f 140/3/2 138/3/2 141/3/2
f 141/3/2 138/3/2 142/3/2
f 143/3/2 144/3/2 145/3/2
f 145/3/2 144/3/2 146/3/2
f 143/3/2 145/3/2 147/3/2
f 147/3/2 145/3/2 148/3/2
f 149/5/2 150/5/2 151/5/2
f 151/5/2 150/5/2 152/5/2
f 151/5/2 152/5/2 153/5/2
f 153/5/2 152/5/2 154/5/2
f 155/6/2 156/6/2 162/6/2
f 162/6/2 156/6/2 163/6/2
f 163/6/2 156/6/2 164/6/2
f 164/6/2 156/6/2 165/6/2
f 157/6/2 158/6/2 166/6/2
f 166/6/2 158/6/2 167/6/2
f 167/6/2 158/6/2 168/6/2
f 168/6/2 158/6/2 169/6/2
f 159/6/2 160/6/2 172/6/2
f 172/6/2 160/6/2 173/6/2
f 173/6/2 160/6/2 174/6/2
f 174/6/2 160/6/2 175/6/2
f 161/5/2 162/5/2 178/5/2
f 162/6/2 163/6/2 179/6/2
f 178/5/2 162/5/2 179/5/2
f 163/3/2 164/3/2 180/3/2
f 179/6/2 163/6/2 180/6/2
f 164/6/2 165/6/2 181/6/2
f 180/3/2 164/3/2 181/3/2
f 165/5/2 166/5/2 182/5/2
f 181/6/2 165/6/2 182/6/2
f 166/6/2 167/6/2 183/6/2
f 182/5/2 166/5/2 183/5/2
f 167/3/2 168/3/2 184/3/2
f 183/6/2 167/6/2 184/6/2
f 168/6/2 169/6/2 185/6/2
f 184/3/2 168/3/2 185/3/2
f 169/5/2 170/5/2 186/5/2
f 185/6/2 169/6/2 186/6/2
f 186/5/2 170/5/2 187/5/2
f 171/5/2 172/5/2 188/5/2
f 172/6/2 173/6/2 189/6/2
f 188/5/2 172/5/2 189/5/2
f 175/5/2 176/5/2 190/5/2
f 174/6/2 175/6/2 190/6/2
f 190/5/2 176/5/2 191/5/2
f 184/4/2 185/4/2 192/4/2
f 179/4/2 180/4/2 192/4/2
f 177/4/2 178/4/2 192/4/2
f 178/4/2 179/4/2 192/4/2
f 185/4/2 186/4/2 192/4/2
f 180/4/2 181/4/2 192/4/2
f 181/4/2 182/4/2 192/4/2
f 182/4/2 183/4/2 192/4/2
f 183/4/2 184/4/2 192/4/2
f 186/4/2 187/4/2 192/4/2
f 192/4/2 187/4/2 193/4/2
f 189/6/2 173/6/2 194/6/2
f 173/3/2 174/3/2 194/3/2
f 174/6/2 190/6/2 195/6/2
f 194/3/2 174/3/2 195/3/2
f 189/6/2 194/6/2 196/6/2
f 188/2/2 189/2/2 196/2/2
f 194/6/2 195/6/2 196/6/2
f 190/2/2 191/2/2 197/2/2
f 196/6/2 195/6/2 197/6/2
f 195/6/2 190/6/2 197/6/2
f 197/2/2 191/2/2 198/2/2
f 196/2/2 197/2/2 199/2/2
f 199/2/2 197/2/2 200/2/2
f 198/2/2 191/2/2 201/2/2
f 201/2/2 191/2/2 202/2/2
f 199/6/2 200/6/2 203/6/2
f 196/2/2 199/2/2 203/2/2
f 201/6/2 202/6/2 203/6/2
f 200/6/2 201/6/2 203/6/2
f 203/6/2 202/6/2 204/6/2
f 188/2/2 196/2/2 205/2/2
f 196/2/2 203/2/2 205/2/2
f 203/2/2 204/2/2 205/2/2
f 205/2/2 204/2/2 206/2/2
f 192/3/2 193/3/2 207/3/2
f 207/3/2 193/3/2 208/3/2
f 207/4/2 208/4/2 209/4/2
f 209/4/2 208/4/2 210/4/2
f 211/2/2 212/2/2 213/2/2
f 213/2/2 212/2/2 214/2/2
f 219/4/3 216/4/3 215/4/3
f 220/3/3 217/3/3 216/3/3
f 220/4/3 216/4/3 219/4/3
f 221/4/3 218/4/3 217/4/3
f 221/3/3 217/3/3 220/3/3
f 222/4/3 218/4/3 221/4/3
f 225/5/3 224/5/3 223/5/3
f 226/5/3 224/5/3 225/5/3
f 229/5/3 228/5/3 227/5/3
f 230/5/3 228/5/3 229/5/3
f 233/6/3 232/6/3 231/6/3
f 234/6/3 232/6/3 233/6/3
f 237/6/3 236/6/3 235/6/3
f 238/6/3 236/6/3 237/6/3
f 241/6/3 240/6/3 239/6/3
f 242/6/3 240/6/3 241/6/3
f 245/3/3 243/3/3 242/3/3
f 246/3/3 245/3/3 244/3/3
f 247/3/3 243/3/3 245/3/3
f 247/3/3 245/3/3 246/3/3
f 248/3/3 243/3/3 247/3/3
f 249/6/3 247/6/3 246/6/3
f 250/6/3 247/6/3 249/6/3
f 253/5/3 252/5/3 251/5/3
f 254/5/3 252/5/3 253/5/3
f 258/5/3 256/5/3 255/5/3
f 258/2/3 257/2/3 256/2/3
f 259/2/3 257/2/3 258/2/3
f 260/5/3 258/5/3 255/5/3
f 261/1/3 259/1/3 258/1/3
f 261/5/3 258/5/3 260/5/3
f 262/2/3 257/2/3 259/2/3
f 262/1/3 259/1/3 261/1/3
f 263/2/3 257/2/3 262/2/3
f 265/1/3 262/1/3 261/1/3
f 265/1/3 263/1/3 262/1/3
f 266/1/3 263/1/3 265/1/3
f 267/1/3 263/1/3 266/1/3
f 268/3/3 264/3/3 263/3/3
f 268/1/3 263/1/3 267/1/3
f 269/3/3 264/3/3 268/3/3
f 272/1/3 267/1/3 266/1/3
f 273/2/3 268/2/3 267/2/3
f 273/1/3 267/1/3 272/1/3
f 274/5/3 271/5/3 270/5/3
f 275/2/3 272/2/3 271/2/3
f 275/5/3 271/5/3 274/5/3
f 275/2/3 273/2/3 272/2/3
f 276/2/3 268/2/3 273/2/3
f 276/2/3 273/2/3 275/2/3
f 279/6/3 278/6/3 277/6/3
f 280/6/3 278/6/3 279/6/3
f 281/3/3 280/3/3 279/3/3
f 282/3/3 280/3/3 281/3/3
f 285/3/3 284/3/3 283/3/3
f 286/3/3 284/3/3 285/3/3
f 287/6/3 286/6/3 285/6/3
f 288/6/3 286/6/3 287/6/3
f 291/2/3 290/2/3 289/2/3
f 292/2/3 290/2/3 291/2/3
f 295/2/3 294/2/3 293/2/3
f 296/2/3 294/2/3 295/2/3
f 297/6/4 298/6/4 299/6/4
f 299/6/4 298/6/4 300/6/4
f 301/6/4 302/6/4 303/6/4
f 303/6/4 302/6/4 304/6/4
f 305/6/4 306/6/4 307/6/4
f 307/6/4 306/6/4 308/6/4
f 308/3/4 309/3/4 311/3/4
f 310/3/4 311/3/4 312/3/4
f 311/3/4 309/3/4 313/3/4
f 312/3/4 311/3/4 313/3/4
f 313/3/4 309/3/4 314/3/4
f 312/6/4 313/6/4 315/6/4
f 315/6/4 313/6/4 316/6/4
f 317/5/4 318/5/4 322/5/4
f 318/4/4 319/4/4 322/4/4
f 319/3/4 320/3/4 323/3/4
f 322/4/4 319/4/4 323/4/4
f 317/5/4 322/5/4 324/5/4
f 322/3/4 323/3/4 325/3/4
f 324/5/4 322/5/4 325/5/4
f 325/3/4 323/3/4 326/3/4
f 323/3/4 320/3/4 327/3/4
f 326/3/4 323/3/4 327/3/4
f 327/3/4 320/3/4 330/3/4
f 328/5/4 329/5/4 331/5/4
f 329/4/4 330/4/4 332/4/4
f 331/5/4 329/5/4 332/5/4
f 330/3/4 320/3/4 333/3/4
f 332/4/4 330/4/4 333/4/4
f 320/4/4 321/4/4 334/4/4
f 333/3/4 320/3/4 334/3/4
f 334/4/4 321/4/4 335/4/4
f 336/3/4 337/3/4 338/3/4
f 338/3/4 337/3/4 339/3/4
f 340/3/4 341/3/4 342/3/4
f 342/3/4 341/3/4 343/3/4
f 344/6/4 345/6/4 346/6/4
f 346/6/4 345/6/4 347/6/4
f 346/3/4 347/3/4 349/3/4
f 347/3/4 348/3/4 349/3/4
f 349/3/4 348/3/4 350/3/4
f 350/3/4 348/3/4 352/3/4
f 351/3/4 352/3/4 353/3/4
f 352/3/4 348/3/4 354/3/4
f 353/3/4 352/3/4 354/3/4
f 354/3/4 348/3/4 355/3/4
f 353/6/4 354/6/4 356/6/4
f 356/6/4 354/6/4 357/6/4
f 358/2/4 359/2/4 360/2/4
f 360/2/4 359/2/4 361/2/4
f 362/2/4 363/2/4 364/2/4
f 364/2/4 363/2/4 365/2/4
f 366/5/4 367/5/4 371/5/4
f 367/2/4 368/2/4 372/2/4
f 371/5/4 367/5/4 372/5/4
f 372/2/4 368/2/4 373/2/4
f 373/2/4 368/2/4 374/2/4
f 372/2/4 373/2/4 375/2/4
f 373/3/4 374/3/4 375/3/4
f 374/2/4 368/2/4 376/2/4
f 375/3/4 374/3/4 376/3/4
f 372/2/4 375/2/4 377/2/4
f 375/2/4 376/2/4 377/2/4
f 376/2/4 368/2/4 378/2/4
f 377/2/4 376/2/4 378/2/4
f 372/2/4 377/2/4 380/2/4
f 377/3/4 378/3/4 381/3/4
f 380/2/4 377/2/4 381/2/4
f 378/2/4 368/2/4 382/2/4
f 381/3/4 378/3/4 382/3/4
f 379/5/4 380/5/4 383/5/4
f 380/2/4 381/2/4 384/2/4
f 383/5/4 380/5/4 384/5/4
f 381/2/4 382/2/4 384/2/4
f 368/6/4 369/6/4 385/6/4
f 384/2/4 382/2/4 385/2/4
f 382/2/4 368/2/4 385/2/4
f 369/2/4 370/2/4 386/2/4
f 385/6/4 369/6/4 386/6/4
f 386/2/4 370/2/4 387/2/4
f 392/6/5 389/6/5 388/6/5
f 393/6/5 389/6/5 392/6/5
f 394/6/5 391/6/5 390/6/5
f 395/6/5 391/6/5 394/6/5
f 401/6/5 397/6/5 396/6/5
f 402/6/5 397/6/5 401/6/5
f 403/3/5 399/3/5 398/3/5
f 404/6/5 400/6/5 399/6/5
f 404/3/5 399/3/5 403/3/5
f 405/6/5 400/6/5 404/6/5
f 412/6/5 407/6/5 406/6/5
f 413/3/5 408/3/5 407/3/5
f 413/6/5 407/6/5 412/6/5
f 414/3/5 408/3/5 413/3/5
f 415/3/5 410/3/5 409/3/5
f 416/6/5 411/6/5 410/6/5
f 416/3/5 410/3/5 415/3/5
f 417/6/5 411/6/5 416/6/5
f 422/5/5 419/5/5 418/5/5
f 423/5/5 419/5/5 422/5/5
f 424/5/5 421/5/5 420/5/5
f 425/5/5 421/5/5 424/5/5
f 430/5/5 427/5/5 426/5/5
f 431/5/5 427/5/5 430/5/5
f 433/5/5 429/5/5 428/5/5
f 434/5/5 429/5/5 433/5/5
f 435/3/5 432/3/5 431/3/5
f 436/3/5 432/3/5 435/3/5
f 437/2/5 436/2/5 435/2/5
f 438/2/5 436/2/5 437/2/5
f 440/3/5 438/3/5 437/3/5
f 441/3/5 438/3/5 440/3/5
f 444/5/5 440/5/5 439/5/5
f 445/5/5 443/5/5 442/5/5
f 446/5/5 444/5/5 439/5/5
f 446/5/5 445/5/5 444/5/5
f 447/5/5 445/5/5 446/5/5
f 448/5/5 443/5/5 445/5/5
f 448/5/5 445/5/5 447/5/5
f 449/5/5 443/5/5 448/5/5
f 451/5/5 448/5/5 447/5/5
f 452/5/5 448/5/5 451/5/5
f 454/5/5 451/5/5 450/5/5
f 454/5/5 453/5/5 452/5/5
f 454/5/5 452/5/5 451/5/5
f 455/5/5 453/5/5 454/5/5
f 456/5/5 453/5/5 455/5/5
f 457/5/5 453/5/5 456/5/5
f 458/5/5 453/5/5 457/5/5
f 459/5/5 453/5/5 458/5/5
f 460/3/5 457/3/5 456/3/5
f 461/3/5 457/3/5 460/3/5
f 462/2/5 461/2/5 460/2/5
f 463/2/5 461/2/5 462/2/5
f 466/3/5 463/3/5 462/3/5
f 467/3/5 463/3/5 466/3/5
f 470/5/5 465/5/5 464/5/5
f 471/5/5 465/5/5 470/5/5
f 472/5/5 469/5/5 468/5/5
f 473/5/5 469/5/5 472/5/5
f 476/4/5 475/4/5 474/4/5
f 477/4/5 475/4/5 476/4/5
f 478/4/5 475/4/5 477/4/5
f 479/4/5 475/4/5 478/4/5
f 480/3/5 478/3/5 477/3/5
f 481/3/5 478/3/5 480/3/5
f 482/3/5 481/3/5 480/3/5
f 483/3/5 481/3/5 482/3/5
f 484/3/5 483/3/5 482/3/5
f 485/3/5 483/3/5 484/3/5
f 486/3/5 485/3/5 484/3/5
f 487/3/5 485/3/5 486/3/5
f 488/3/5 487/3/5 486/3/5
f 489/3/5 487/3/5 488/3/5
f 492/1/5 491/1/5 490/1/5
f 493/1/5 491/1/5 492/1/5
f 496/1/5 495/1/5 494/1/5
f 497/1/5 495/1/5 496/1/5
f 498/2/5 497/2/5 496/2/5
f 499/2/5 497/2/5 498/2/5
f 504/2/5 501/2/5 500/2/5
f 505/2/5 501/2/5 504/2/5
f 506/2/5 503/2/5 502/2/5
f 507/2/5 503/2/5 506/2/5
f 508/5/6 509/5/6 510/5/6
f 510/5/6 509/5/6 511/5/6
f 512/5/6 513/5/6 514/5/6
f 514/5/6 513/5/6 515/5/6
f 516/2/6 517/2/6 520/2/6
f 520/2/6 517/2/6 521/2/6
f 518/2/6 519/2/6 522/2/6
f 522/2/6 519/2/6 523/2/6
f 524/2/6 525/2/6 528/2/6
f 526/2/6 527/2/6 529/2/6
f 524/2/6 528/2/6 530/2/6
f 528/2/6 529/2/6 530/2/6
f 529/2/6 527/2/6 531/2/6
f 530/2/6 529/2/6 531/2/6
f 532/3/6 533/3/6 534/3/6
f 534/3/6 533/3/6 535/3/6
f 536/3/6 537/3/6 538/3/6
f 538/3/6 537/3/6 539/3/6
f 540/4/6 541/4/6 542/4/6
f 542/4/6 541/4/6 543/4/6
f 540/4/6 542/4/6 544/4/6
f 542/3/6 543/3/6 544/3/6
f 543/4/6 541/4/6 545/4/6
f 544/3/6 543/3/6 545/3/6
f 540/4/6 544/4/6 546/4/6
f 544/4/6 545/4/6 546/4/6
f 545/4/6 541/4/6 547/4/6
f 546/4/6 545/4/6 547/4/6
