# MagicaVoxel @ Ephtracy

# group
o 

# material
mtllib rail_sign_active1.mtl
usemtl palette

# normals
vn -1 0 0
vn 1 0 0
vn 0 0 1
vn 0 0 -1
vn 0 -1 0
vn 0 1 0

# texcoords
vt 0.841797 0.5
vt 0.845703 0.5
vt 0.958984 0.5
vt 0.994141 0.5

# verts
v 7.45058e-009 0 0.1
v 7.45058e-009 0 0
v 7.45058e-009 0.1 0.1
v 7.45058e-009 0.1 0
v 7.45058e-009 0.2 0.1
v 7.45058e-009 0.2 0
v 7.45058e-009 0.3 0.1
v 7.45058e-009 0.3 0
v 7.45058e-009 0.4 0.1
v 7.45058e-009 0.4 0
v 7.45058e-009 0.5 0.1
v 7.45058e-009 0.5 0
v 7.45058e-009 0.6 0.1
v 7.45058e-009 0.6 0
v 7.45058e-009 0.7 0.1
v 7.45058e-009 0.7 0
v 7.45058e-009 0.8 0.1
v 7.45058e-009 0.8 0
v 7.45058e-009 0.9 0.1
v 7.45058e-009 0.9 0
v 7.45058e-009 1 0.1
v 7.45058e-009 1 0
v 0.1 0.6 0.3
v 0.1 0.6 0.1
v 0.1 0.6 0
v 0.1 0.6 -0.2
v 0.1 0.7 0.1
v 0.1 0.7 0
v 0.1 0.8 0.1
v 0.1 0.8 0
v 0.1 0.9 0.3
v 0.1 0.9 0.1
v 0.1 0.9 0
v 0.1 0.9 -0.2
v 0.1 0 0.1
v 0.1 0 0
v 0.1 0.1 0.1
v 0.1 0.1 0
v 0.1 0.2 0.1
v 0.1 0.2 0
v 0.1 0.3 0.1
v 0.1 0.3 0
v 0.1 0.4 0.1
v 0.1 0.4 0
v 0.1 0.5 0.1
v 0.1 0.5 0
v 0.1 0.6 0.1
v 0.1 0.6 0
v 0.1 0.9 0.1
v 0.1 0.9 0
v 0.1 1 0.1
v 0.1 1 0
v 0.2 0.6 0.3
v 0.2 0.6 -0.2
v 0.2 0.7 0.2
v 0.2 0.7 0.1
v 0.2 0.7 0
v 0.2 0.7 -0.1
v 0.2 0.8 0.2
v 0.2 0.8 0.1
v 0.2 0.8 0
v 0.2 0.8 -0.1
v 0.2 0.9 0.3
v 0.2 0.9 -0.2
v 0.3 0.7 0.2
v 0.3 0.7 0.1
v 0.3 0.7 0
v 0.3 0.7 -0.1
v 0.3 0.8 0.2
v 0.3 0.8 0.1
v 0.3 0.8 0
v 0.3 0.8 -0.1
v 0.1 0.6 0.3
v 0.1 0.9 0.3
v 0.2 0.6 0.3
v 0.2 0.9 0.3
v 0.2 0.7 0.2
v 0.2 0.8 0.2
v 0.3 0.7 0.2
v 0.3 0.8 0.2
v 7.45058e-009 0 0.1
v 7.45058e-009 0.1 0.1
v 7.45058e-009 0.2 0.1
v 7.45058e-009 0.3 0.1
v 7.45058e-009 0.4 0.1
v 7.45058e-009 0.5 0.1
v 7.45058e-009 0.6 0.1
v 7.45058e-009 0.7 0.1
v 7.45058e-009 0.8 0.1
v 7.45058e-009 0.9 0.1
v 7.45058e-009 1 0.1
v 0.1 0 0.1
v 0.1 0.1 0.1
v 0.1 0.2 0.1
v 0.1 0.3 0.1
v 0.1 0.4 0.1
v 0.1 0.5 0.1
v 0.1 0.6 0.1
v 0.1 0.7 0.1
v 0.1 0.8 0.1
v 0.1 0.9 0.1
v 0.1 1 0.1
v 0.2 0.7 0
v 0.2 0.8 0
v 0.3 0.7 0
v 0.3 0.8 0
v 0.2 0.7 0.1
v 0.2 0.8 0.1
v 0.3 0.7 0.1
v 0.3 0.8 0.1
v 7.45058e-009 0 0
v 7.45058e-009 0.1 0
v 7.45058e-009 0.2 0
v 7.45058e-009 0.3 0
v 7.45058e-009 0.4 0
v 7.45058e-009 0.5 0
v 7.45058e-009 0.6 0
v 7.45058e-009 0.7 0
v 7.45058e-009 0.8 0
v 7.45058e-009 0.9 0
v 7.45058e-009 1 0
v 0.1 0 0
v 0.1 0.1 0
v 0.1 0.2 0
v 0.1 0.3 0
v 0.1 0.4 0
v 0.1 0.5 0
v 0.1 0.6 0
v 0.1 0.7 0
v 0.1 0.8 0
v 0.1 0.9 0
v 0.1 1 0
v 0.2 0.7 -0.1
v 0.2 0.8 -0.1
v 0.3 0.7 -0.1
v 0.3 0.8 -0.1
v 0.1 0.6 -0.2
v 0.1 0.9 -0.2
v 0.2 0.6 -0.2
v 0.2 0.9 -0.2
v 7.45058e-009 0 0.1
v 0.1 0 0.1
v 7.45058e-009 0 0
v 0.1 0 0
v 0.1 0.6 0.3
v 0.2 0.6 0.3
v 0.1 0.6 0.1
v 0.1 0.6 0
v 0.1 0.6 -0.2
v 0.2 0.6 -0.2
v 0.2 0.7 0.2
v 0.3 0.7 0.2
v 0.2 0.7 0.1
v 0.3 0.7 0.1
v 0.2 0.7 0
v 0.3 0.7 0
v 0.2 0.7 -0.1
v 0.3 0.7 -0.1
v 0.2 0.8 0.2
v 0.3 0.8 0.2
v 0.2 0.8 0.1
v 0.3 0.8 0.1
v 0.2 0.8 0
v 0.3 0.8 0
v 0.2 0.8 -0.1
v 0.3 0.8 -0.1
v 0.1 0.9 0.3
v 0.2 0.9 0.3
v 0.1 0.9 0.1
v 0.1 0.9 0
v 0.1 0.9 -0.2
v 0.2 0.9 -0.2
v 7.45058e-009 1 0.1
v 0.1 1 0.1
v 7.45058e-009 1 0
v 0.1 1 0

# faces
f 3/1/1 2/1/1 1/1/1
f 4/1/1 2/1/1 3/1/1
f 5/3/1 4/3/1 3/3/1
f 6/3/1 4/3/1 5/3/1
f 7/1/1 6/1/1 5/1/1
f 8/1/1 6/1/1 7/1/1
f 9/3/1 8/3/1 7/3/1
f 10/3/1 8/3/1 9/3/1
f 11/1/1 10/1/1 9/1/1
f 12/1/1 10/1/1 11/1/1
f 13/3/1 12/3/1 11/3/1
f 14/3/1 12/3/1 13/3/1
f 15/1/1 14/1/1 13/1/1
f 16/1/1 14/1/1 15/1/1
f 17/3/1 16/3/1 15/3/1
f 18/3/1 16/3/1 17/3/1
f 19/1/1 18/1/1 17/1/1
f 20/1/1 18/1/1 19/1/1
f 21/3/1 20/3/1 19/3/1
f 22/3/1 20/3/1 21/3/1
f 27/4/1 24/4/1 23/4/1
f 28/4/1 26/4/1 25/4/1
f 29/4/1 27/4/1 23/4/1
f 30/4/1 26/4/1 28/4/1
f 31/4/1 29/4/1 23/4/1
f 32/4/1 29/4/1 31/4/1
f 33/4/1 26/4/1 30/4/1
f 34/4/1 26/4/1 33/4/1
f 35/1/2 36/1/2 37/1/2
f 37/1/2 36/1/2 38/1/2
f 37/3/2 38/3/2 39/3/2
f 39/3/2 38/3/2 40/3/2
f 39/1/2 40/1/2 41/1/2
f 41/1/2 40/1/2 42/1/2
f 41/3/2 42/3/2 43/3/2
f 43/3/2 42/3/2 44/3/2
f 43/1/2 44/1/2 45/1/2
f 45/1/2 44/1/2 46/1/2
f 45/3/2 46/3/2 47/3/2
f 47/3/2 46/3/2 48/3/2
f 49/3/2 50/3/2 51/3/2
f 51/3/2 50/3/2 52/3/2
f 53/4/2 54/4/2 55/4/2
f 55/4/2 54/4/2 56/4/2
f 56/4/2 54/4/2 57/4/2
f 57/4/2 54/4/2 58/4/2
f 53/4/2 55/4/2 59/4/2
f 56/4/2 57/4/2 60/4/2
f 60/4/2 57/4/2 61/4/2
f 58/4/2 54/4/2 62/4/2
f 60/4/2 61/4/2 63/4/2
f 61/4/2 62/4/2 63/4/2
f 53/4/2 59/4/2 63/4/2
f 59/4/2 60/4/2 63/4/2
f 62/4/2 54/4/2 64/4/2
f 63/4/2 62/4/2 64/4/2
f 65/4/2 66/4/2 69/4/2
f 69/4/2 66/4/2 70/4/2
f 67/2/2 68/2/2 71/2/2
f 71/2/2 68/2/2 72/2/2
f 75/4/3 74/4/3 73/4/3
f 76/4/3 74/4/3 75/4/3
f 79/4/3 78/4/3 77/4/3
f 80/4/3 78/4/3 79/4/3
f 92/1/3 82/1/3 81/1/3
f 93/3/3 83/3/3 82/3/3
f 93/1/3 82/1/3 92/1/3
f 94/1/3 84/1/3 83/1/3
f 94/3/3 83/3/3 93/3/3
f 95/3/3 85/3/3 84/3/3
f 95/1/3 84/1/3 94/1/3
f 96/1/3 86/1/3 85/1/3
f 96/3/3 85/3/3 95/3/3
f 97/3/3 87/3/3 86/3/3
f 97/1/3 86/1/3 96/1/3
f 98/1/3 88/1/3 87/1/3
f 98/3/3 87/3/3 97/3/3
f 99/3/3 89/3/3 88/3/3
f 99/1/3 88/1/3 98/1/3
f 100/1/3 90/1/3 89/1/3
f 100/3/3 89/3/3 99/3/3
f 101/3/3 91/3/3 90/3/3
f 101/1/3 90/1/3 100/1/3
f 102/3/3 91/3/3 101/3/3
f 105/2/3 104/2/3 103/2/3
f 106/2/3 104/2/3 105/2/3
f 107/4/4 108/4/4 109/4/4
f 109/4/4 108/4/4 110/4/4
f 111/1/4 112/1/4 122/1/4
f 112/3/4 113/3/4 123/3/4
f 122/1/4 112/1/4 123/1/4
f 113/1/4 114/1/4 124/1/4
f 123/3/4 113/3/4 124/3/4
f 114/3/4 115/3/4 125/3/4
f 124/1/4 114/1/4 125/1/4
f 115/1/4 116/1/4 126/1/4
f 125/3/4 115/3/4 126/3/4
f 116/3/4 117/3/4 127/3/4
f 126/1/4 116/1/4 127/1/4
f 117/1/4 118/1/4 128/1/4
f 127/3/4 117/3/4 128/3/4
f 118/3/4 119/3/4 129/3/4
f 128/1/4 118/1/4 129/1/4
f 119/1/4 120/1/4 130/1/4
f 129/3/4 119/3/4 130/3/4
f 120/3/4 121/3/4 131/3/4
f 130/1/4 120/1/4 131/1/4
f 131/3/4 121/3/4 132/3/4
f 133/2/4 134/2/4 135/2/4
f 135/2/4 134/2/4 136/2/4
f 137/4/4 138/4/4 139/4/4
f 139/4/4 138/4/4 140/4/4
f 143/1/5 142/1/5 141/1/5
f 144/1/5 142/1/5 143/1/5
f 147/4/5 146/4/5 145/4/5
f 148/4/5 146/4/5 147/4/5
f 149/4/5 146/4/5 148/4/5
f 150/4/5 146/4/5 149/4/5
f 153/4/5 152/4/5 151/4/5
f 154/4/5 152/4/5 153/4/5
f 157/2/5 156/2/5 155/2/5
f 158/2/5 156/2/5 157/2/5
f 159/4/6 160/4/6 161/4/6
f 161/4/6 160/4/6 162/4/6
f 163/2/6 164/2/6 165/2/6
f 165/2/6 164/2/6 166/2/6
f 167/4/6 168/4/6 169/4/6
f 169/4/6 168/4/6 170/4/6
f 170/4/6 168/4/6 171/4/6
f 171/4/6 168/4/6 172/4/6
f 173/3/6 174/3/6 175/3/6
f 175/3/6 174/3/6 176/3/6
