# MagicaVoxel @ Ephtracy

# group
o 

# material
mtllib rock2.mtl
usemtl palette

# normals
vn -1 0 0
vn 1 0 0
vn 0 0 1
vn 0 0 -1
vn 0 -1 0
vn 0 1 0

# texcoords
vt 0.970703 0.5

# verts
v -1.7 0 1.7
v -1.7 0 -1.3
v -1.7 0.5 -1.3
v -1.7 0.5 -1.8
v -1.7 1.5 1.7
v -1.7 1.5 1.2
v -1.7 2 1.2
v -1.7 2 -1.8
v -1.2 0 -1.3
v -1.2 0 -1.8
v -1.2 0.5 -1.3
v -1.2 0.5 -1.8
v -0.7 2 1.2
v -0.7 2 -1.3
v -0.7 2.5 1.2
v -0.7 2.5 -1.3
v 0.8 2 1.2
v 0.8 2 -1.3
v 0.8 2.5 1.2
v 0.8 2.5 -1.3
v 1.3 0 -1.3
v 1.3 0 -1.8
v 1.3 1.5 1.2
v 1.3 1.5 -1.3
v 1.3 2 1.2
v 1.3 2 -1.8
v 1.8 0 1.7
v 1.8 0 -1.3
v 1.8 1.5 1.7
v 1.8 1.5 -1.3
v -1.7 0 1.7
v -1.7 1.5 1.7
v 1.8 0 1.7
v 1.8 1.5 1.7
v -1.7 1.5 1.2
v -1.7 2 1.2
v -0.7 2 1.2
v -0.7 2.5 1.2
v 0.8 2 1.2
v 0.8 2.5 1.2
v 1.3 1.5 1.2
v 1.3 2 1.2
v -1.7 0 -1.3
v -1.7 0.5 -1.3
v -1.2 0 -1.3
v -1.2 0.5 -1.3
v -0.7 2 -1.3
v -0.7 2.5 -1.3
v 0.8 2 -1.3
v 0.8 2.5 -1.3
v 1.3 0 -1.3
v 1.3 1.5 -1.3
v 1.8 0 -1.3
v 1.8 1.5 -1.3
v -1.7 0.5 -1.8
v -1.7 2 -1.8
v -1.2 0 -1.8
v -1.2 0.5 -1.8
v 1.3 0 -1.8
v 1.3 2 -1.8
v -1.7 0 1.7
v 1.8 0 1.7
v -1.7 0 -1.3
v -1.2 0 -1.3
v 1.3 0 -1.3
v 1.8 0 -1.3
v -1.2 0 -1.8
v 1.3 0 -1.8
v -1.7 0.5 -1.3
v -1.2 0.5 -1.3
v -1.7 0.5 -1.8
v -1.2 0.5 -1.8
v -1.7 1.5 1.7
v 1.8 1.5 1.7
v -1.7 1.5 1.2
v 1.3 1.5 1.2
v 1.3 1.5 -1.3
v 1.8 1.5 -1.3
v -1.7 2 1.2
v -0.7 2 1.2
v 0.8 2 1.2
v 1.3 2 1.2
v -0.7 2 -1.3
v 0.8 2 -1.3
v -1.7 2 -1.8
v 1.3 2 -1.8
v -0.7 2.5 1.2
v 0.8 2.5 1.2
v -0.7 2.5 -1.3
v 0.8 2.5 -1.3

# faces
f 3/1/1 2/1/1 1/1/1
f 5/1/1 3/1/1 1/1/1
f 5/1/1 4/1/1 3/1/1
f 6/1/1 4/1/1 5/1/1
f 7/1/1 4/1/1 6/1/1
f 8/1/1 4/1/1 7/1/1
f 11/1/1 10/1/1 9/1/1
f 12/1/1 10/1/1 11/1/1
f 15/1/1 14/1/1 13/1/1
f 16/1/1 14/1/1 15/1/1
f 17/1/2 18/1/2 19/1/2
f 19/1/2 18/1/2 20/1/2
f 21/1/2 22/1/2 24/1/2
f 23/1/2 24/1/2 25/1/2
f 24/1/2 22/1/2 26/1/2
f 25/1/2 24/1/2 26/1/2
f 27/1/2 28/1/2 29/1/2
f 29/1/2 28/1/2 30/1/2
f 33/1/3 32/1/3 31/1/3
f 34/1/3 32/1/3 33/1/3
f 37/1/3 36/1/3 35/1/3
f 39/1/3 37/1/3 35/1/3
f 39/1/3 38/1/3 37/1/3
f 40/1/3 38/1/3 39/1/3
f 41/1/3 39/1/3 35/1/3
f 42/1/3 39/1/3 41/1/3
f 43/1/4 44/1/4 45/1/4
f 45/1/4 44/1/4 46/1/4
f 47/1/4 48/1/4 49/1/4
f 49/1/4 48/1/4 50/1/4
f 51/1/4 52/1/4 53/1/4
f 53/1/4 52/1/4 54/1/4
f 55/1/4 56/1/4 58/1/4
f 57/1/4 58/1/4 59/1/4
f 58/1/4 56/1/4 60/1/4
f 59/1/4 58/1/4 60/1/4
f 63/1/5 62/1/5 61/1/5
f 64/1/5 62/1/5 63/1/5
f 65/1/5 62/1/5 64/1/5
f 66/1/5 62/1/5 65/1/5
f 67/1/5 65/1/5 64/1/5
f 68/1/5 65/1/5 67/1/5
f 71/1/5 70/1/5 69/1/5
f 72/1/5 70/1/5 71/1/5
f 73/1/6 74/1/6 75/1/6
f 75/1/6 74/1/6 76/1/6
f 76/1/6 74/1/6 77/1/6
f 77/1/6 74/1/6 78/1/6
f 79/1/6 80/1/6 83/1/6
f 81/1/6 82/1/6 84/1/6
f 79/1/6 83/1/6 85/1/6
f 83/1/6 84/1/6 85/1/6
f 84/1/6 82/1/6 86/1/6
f 85/1/6 84/1/6 86/1/6
f 87/1/6 88/1/6 89/1/6
f 89/1/6 88/1/6 90/1/6
