# MagicaVoxel @ Ephtracy

# group
o 

# material
mtllib lilypad.mtl
usemtl palette

# normals
vn -1 0 0
vn 1 0 0
vn 0 0 1
vn 0 0 -1
vn 0 -1 0
vn 0 1 0

# texcoords
vt 0.583984 0.5
vt 0.744141 0.5

# verts
v -1 0 1
v -1 0 0.5
v -1 0 0
v -1 0 -0.5
v -1 0.5 1
v -1 0.5 0.5
v -1 0.5 0
v -1 0.5 -0.5
v -0.5 0 -0.5
v -0.5 0 -1
v -0.5 0.5 -0.5
v -0.5 0.5 -1
v 1 0 1
v 1 0 -1
v 1 0.5 1
v 1 0.5 -1
v -1 0 1
v -1 0.5 1
v 1 0 1
v 1 0.5 1
v -1 0 -0.5
v -1 0.5 -0.5
v -0.5 0 -0.5
v -0.5 0.5 -0.5
v -0.5 0 -1
v -0.5 0.5 -1
v 0 0 -1
v 0 0.5 -1
v 0.5 0 -1
v 0.5 0.5 -1
v 1 0 -1
v 1 0.5 -1
v -1 0 1
v 1 0 1
v -1 0 0.5
v 0.5 0 0.5
v -1 0 0
v 0 0 0
v -1 0 -0.5
v -0.5 0 -0.5
v -0.5 0 -1
v 0 0 -1
v 0.5 0 -1
v 1 0 -1
v -1 0.5 1
v 1 0.5 1
v -1 0.5 0.5
v 0.5 0.5 0.5
v -1 0.5 0
v 0 0.5 0
v -1 0.5 -0.5
v -0.5 0.5 -0.5
v -0.5 0.5 -1
v 0 0.5 -1
v 0.5 0.5 -1
v 1 0.5 -1

# faces
f 5/2/1 2/2/1 1/2/1
f 6/1/1 3/1/1 2/1/1
f 6/2/1 2/2/1 5/2/1
f 7/2/1 4/2/1 3/2/1
f 7/1/1 3/1/1 6/1/1
f 8/2/1 4/2/1 7/2/1
f 11/2/1 10/2/1 9/2/1
f 12/2/1 10/2/1 11/2/1
f 13/2/2 14/2/2 15/2/2
f 15/2/2 14/2/2 16/2/2
f 19/2/3 18/2/3 17/2/3
f 20/2/3 18/2/3 19/2/3
f 21/2/4 22/2/4 23/2/4
f 23/2/4 22/2/4 24/2/4
f 25/2/4 26/2/4 27/2/4
f 27/2/4 26/2/4 28/2/4
f 27/1/4 28/1/4 29/1/4
f 29/1/4 28/1/4 30/1/4
f 29/2/4 30/2/4 31/2/4
f 31/2/4 30/2/4 32/2/4
f 35/2/5 34/2/5 33/2/5
f 36/2/5 34/2/5 35/2/5
f 37/1/5 36/1/5 35/1/5
f 38/1/5 36/1/5 37/1/5
f 39/2/5 38/2/5 37/2/5
f 40/2/5 38/2/5 39/2/5
f 41/2/5 38/2/5 40/2/5
f 42/1/5 36/1/5 38/1/5
f 42/2/5 38/2/5 41/2/5
f 43/2/5 34/2/5 36/2/5
f 43/1/5 36/1/5 42/1/5
f 44/2/5 34/2/5 43/2/5
f 45/2/6 46/2/6 47/2/6
f 47/2/6 46/2/6 48/2/6
f 47/1/6 48/1/6 49/1/6
f 49/1/6 48/1/6 50/1/6
f 49/2/6 50/2/6 51/2/6
f 51/2/6 50/2/6 52/2/6
f 52/2/6 50/2/6 53/2/6
f 50/1/6 48/1/6 54/1/6
f 53/2/6 50/2/6 54/2/6
f 48/2/6 46/2/6 55/2/6
f 54/1/6 48/1/6 55/1/6
f 55/2/6 46/2/6 56/2/6
