# MagicaVoxel @ Ephtracy

# group
o 

# material
mtllib log1.mtl
usemtl palette

# normals
vn -1 0 0
vn 1 0 0
vn 0 0 1
vn 0 0 -1
vn 0 -1 0
vn 0 1 0

# texcoords
vt 0.107422 0.5
vt 0.142578 0.5
vt 0.158203 0.5

# verts
v -4 0 2
v -4 0 1
v -4 0 -1
v -4 0 -2
v -4 1 1
v -4 1 -1
v -4 2 2
v -4 2 -2
v -3 0 1
v -3 0 -1
v -3 1 1
v -3 1 -1
v 3 0 1
v 3 0 -1
v 3 1 1
v 3 1 -1
v 4 0 2
v 4 0 1
v 4 0 -1
v 4 0 -2
v 4 1 1
v 4 1 -1
v 4 2 2
v 4 2 -2
v -4 0 2
v -4 2 2
v -3 0 2
v -3 2 2
v -2 0 2
v -2 1 2
v 0 0 2
v 0 1 2
v 1 0 2
v 1 1 2
v 2 0 2
v 2 1 2
v 3 0 2
v 3 2 2
v 4 0 2
v 4 2 2
v -4 0 -1
v -4 1 -1
v -3 0 -1
v -3 1 -1
v 3 0 -1
v 3 1 -1
v 4 0 -1
v 4 1 -1
v -4 0 1
v -4 1 1
v -3 0 1
v -3 1 1
v 3 0 1
v 3 1 1
v 4 0 1
v 4 1 1
v -4 0 -2
v -4 2 -2
v -3 0 -2
v -3 1 -2
v -3 2 -2
v -1 1 -2
v -1 2 -2
v 0 0 -2
v 0 1 -2
v 2 0 -2
v 2 1 -2
v 3 0 -2
v 3 2 -2
v 4 0 -2
v 4 2 -2
v -4 0 2
v -3 0 2
v -2 0 2
v 0 0 2
v 1 0 2
v 2 0 2
v 3 0 2
v 4 0 2
v -4 0 1
v -3 0 1
v -2 0 1
v 0 0 1
v 1 0 1
v 2 0 1
v 3 0 1
v 4 0 1
v -4 0 -1
v -3 0 -1
v 0 0 -1
v 2 0 -1
v 3 0 -1
v 4 0 -1
v -4 0 -2
v -3 0 -2
v 0 0 -2
v 2 0 -2
v 3 0 -2
v 4 0 -2
v -4 1 1
v -3 1 1
v 3 1 1
v 4 1 1
v -4 1 -1
v -3 1 -1
v 3 1 -1
v 4 1 -1
v -4 2 2
v -3 2 2
v 3 2 2
v 4 2 2
v -3 2 1
v 0 2 1
v 1 2 1
v 3 2 1
v -3 2 -2.38419e-007
v 0 2 -2.38419e-007
v 1 2 -2.38419e-007
v 3 2 -2.38419e-007
v -3 2 -1
v -1 2 -1
v -4 2 -2
v -3 2 -2
v -1 2 -2
v 3 2 -2
v 4 2 -2

# faces
f 5/2/1 2/2/1 1/2/1
f 6/2/1 4/2/1 3/2/1
f 7/2/1 5/2/1 1/2/1
f 7/2/1 6/2/1 5/2/1
f 8/2/1 4/2/1 6/2/1
f 8/2/1 6/2/1 7/2/1
f 11/3/1 10/3/1 9/3/1
f 12/3/1 10/3/1 11/3/1
f 13/3/2 14/3/2 15/3/2
f 15/3/2 14/3/2 16/3/2
f 17/2/2 18/2/2 21/2/2
f 19/2/2 20/2/2 22/2/2
f 17/2/2 21/2/2 23/2/2
f 21/2/2 22/2/2 23/2/2
f 22/2/2 20/2/2 24/2/2
f 23/2/2 22/2/2 24/2/2
f 27/2/3 26/2/3 25/2/3
f 28/2/3 26/2/3 27/2/3
f 29/3/3 28/3/3 27/3/3
f 30/3/3 28/3/3 29/3/3
f 31/1/3 30/1/3 29/1/3
f 32/3/3 28/3/3 30/3/3
f 32/1/3 30/1/3 31/1/3
f 33/3/3 32/3/3 31/3/3
f 34/3/3 28/3/3 32/3/3
f 34/3/3 32/3/3 33/3/3
f 35/1/3 34/1/3 33/1/3
f 36/3/3 28/3/3 34/3/3
f 36/1/3 34/1/3 35/1/3
f 37/3/3 36/3/3 35/3/3
f 38/3/3 28/3/3 36/3/3
f 38/3/3 36/3/3 37/3/3
f 39/2/3 38/2/3 37/2/3
f 40/2/3 38/2/3 39/2/3
f 43/2/3 42/2/3 41/2/3
f 44/2/3 42/2/3 43/2/3
f 47/2/3 46/2/3 45/2/3
f 48/2/3 46/2/3 47/2/3
f 49/2/4 50/2/4 51/2/4
f 51/2/4 50/2/4 52/2/4
f 53/2/4 54/2/4 55/2/4
f 55/2/4 54/2/4 56/2/4
f 57/2/4 58/2/4 59/2/4
f 59/2/4 58/2/4 60/2/4
f 60/2/4 58/2/4 61/2/4
f 59/3/4 60/3/4 62/3/4
f 60/1/4 61/1/4 62/1/4
f 62/1/4 61/1/4 63/1/4
f 59/3/4 62/3/4 64/3/4
f 62/3/4 63/3/4 64/3/4
f 64/3/4 63/3/4 65/3/4
f 64/1/4 65/1/4 66/1/4
f 65/3/4 63/3/4 67/3/4
f 66/1/4 65/1/4 67/1/4
f 66/3/4 67/3/4 68/3/4
f 67/3/4 63/3/4 69/3/4
f 68/3/4 67/3/4 69/3/4
f 68/2/4 69/2/4 70/2/4
f 70/2/4 69/2/4 71/2/4
f 80/2/5 73/2/5 72/2/5
f 81/3/5 74/3/5 73/3/5
f 81/2/5 73/2/5 80/2/5
f 82/1/5 75/1/5 74/1/5
f 82/3/5 74/3/5 81/3/5
f 83/3/5 76/3/5 75/3/5
f 83/1/5 75/1/5 82/1/5
f 84/1/5 77/1/5 76/1/5
f 84/3/5 76/3/5 83/3/5
f 85/3/5 78/3/5 77/3/5
f 85/1/5 77/1/5 84/1/5
f 86/2/5 79/2/5 78/2/5
f 86/3/5 78/3/5 85/3/5
f 87/2/5 79/2/5 86/2/5
f 89/3/5 85/3/5 84/3/5
f 89/3/5 86/3/5 85/3/5
f 89/3/5 84/3/5 83/3/5
f 89/3/5 83/3/5 82/3/5
f 89/3/5 82/3/5 81/3/5
f 90/3/5 86/3/5 89/3/5
f 91/3/5 86/3/5 90/3/5
f 92/3/5 86/3/5 91/3/5
f 94/2/5 89/2/5 88/2/5
f 95/3/5 90/3/5 89/3/5
f 95/2/5 89/2/5 94/2/5
f 96/1/5 91/1/5 90/1/5
f 96/3/5 90/3/5 95/3/5
f 97/3/5 92/3/5 91/3/5
f 97/1/5 91/1/5 96/1/5
f 98/2/5 93/2/5 92/2/5
f 98/3/5 92/3/5 97/3/5
f 99/2/5 93/2/5 98/2/5
f 104/2/5 101/2/5 100/2/5
f 105/2/5 101/2/5 104/2/5
f 106/2/5 103/2/5 102/2/5
f 107/2/5 103/2/5 106/2/5
f 108/2/6 109/2/6 112/2/6
f 109/3/6 110/3/6 112/3/6
f 112/3/6 110/3/6 113/3/6
f 113/3/6 110/3/6 114/3/6
f 110/2/6 111/2/6 115/2/6
f 114/3/6 110/3/6 115/3/6
f 108/2/6 112/2/6 116/2/6
f 112/1/6 113/1/6 116/1/6
f 113/3/6 114/3/6 117/3/6
f 116/1/6 113/1/6 117/1/6
f 114/1/6 115/1/6 118/1/6
f 117/3/6 114/3/6 118/3/6
f 115/2/6 111/2/6 119/2/6
f 118/1/6 115/1/6 119/1/6
f 108/2/6 116/2/6 120/2/6
f 117/3/6 118/3/6 120/3/6
f 118/3/6 119/3/6 120/3/6
f 116/3/6 117/3/6 120/3/6
f 120/3/6 119/3/6 121/3/6
f 108/2/6 120/2/6 122/2/6
f 120/1/6 121/1/6 123/1/6
f 122/2/6 120/2/6 123/2/6
f 121/3/6 119/3/6 124/3/6
f 123/1/6 121/1/6 124/1/6
f 119/2/6 111/2/6 125/2/6
f 124/3/6 119/3/6 125/3/6
f 125/2/6 111/2/6 126/2/6
